<svg width="24" height="24" viewBox="0 0 1.08 1.08" xmlns="http://www.w3.org/2000/svg" aria-hidden="true" class="iconify iconify--twemoji"><path fill="#265FB5" d="M1.08.81a.12.12 0 0 1-.12.12H.12A.12.12 0 0 1 0 .81V.27A.12.12 0 0 1 .12.15h.84a.12.12 0 0 1 .12.12z"/><path fill="#EEE" d="M0 .39h1.08v.3H0z"/><path fill="#A9BF4C" d="M.677.54a.137.137 0 1 1-.273 0 .137.137 0 0 1 .273 0"/><path fill="#EEE" d="M.66.54a.12.12 0 0 1-.12.12.12.12 0 0 1-.12-.12.12.12 0 0 1 .24 0"/><path fill="#265FB5" d="M.443.605.54.437l.097.168z"/><path fill="#55ACEE" d="M.453.598.539.449l.086.149z"/><path fill="#BBDDF5" d="M.453.598.474.562.604.56l.022.038z"/><path fill="#5C913B" d="M.47.575.502.549l.014.016.012-.013.01.01.01-.011.012.011.011-.011.01.011.009-.01.015.019.003.006S.592.58.569.578.533.581.516.584a.3.3 0 0 1-.05-.002z"/><path fill="#E2F09F" d="m.502.554.022.023-.011.001L.501.56zm.026.002.017.015-.008.001L.529.56zM.55.555l.015.014-.004.002L.549.558zm.02 0L.564.561l.003.003zm.019 0L.582.564l.002.004.005-.01z"/><path fill="#BBDDF5" d="m.541.493.002.028.016-.023-.012.025.025-.012-.023.016.028.002-.028.002.023.016L.547.535.559.56.543.537.541.565.539.537.523.56.535.535.51.547.533.531.505.529.533.527.51.511l.025.012L.523.498l.016.023z"/><path fill="#DD2E44" d="M.54.516.534.522l.001.01L.54.54.547.532.545.521z"/><path fill="#269" d="M.543.506c.023 0 .036.011.036.011L.571.502S.557.492.541.492.507.505.507.505L.499.521S.52.506.543.506"/><path fill="#FFCC4D" d="M.543.506c.023 0 .036.011.036.011L.573.506S.557.496.541.496.505.509.505.509L.499.52S.52.505.543.505"/><path fill="#DD2E44" d="M.543.506c.023 0 .036.011.036.011L.575.51S.562.501.541.502a.1.1 0 0 0-.038.012L.5.521S.521.506.544.506"/><path fill="#EEE" d="M.528.652h.03v.029h-.03zM.523.43H.502L.491.404.512.402zm.049.012L.558.437.565.402l.027.002zM.443.589l-.042.01L.4.57.442.564zm.011.03L.419.633.411.61.443.599zm.23-.026L.646.582v-.02L.689.556zM.665.632.629.615.641.593.68.605z"/></svg>