<?xml version="1.0" encoding="UTF-8"?>
<svg id="Capa_2" data-name="Capa 2" xmlns="http://www.w3.org/2000/svg" viewBox="0 0 470.54 500.04">
  <defs>
    <style>
      .cls-1 {
        fill: #725029;
      }
    </style>
  </defs>
  <g id="Capa_1-2" data-name="Capa 1">
    <g id="logo-sheets">
      <path class="cls-1" d="M221.49,470.03l.02-.02c-5.56-.44-13.21-.65-17.81-3.49-5.7-3.53-9.31-10.15-9.48-16.84-.18-6.71,2.18-4.57,4.34-8.88,2.3-4.59,2.87-17.33.77-21.9-1.07-2.32-2.04-1.66-4.04-.77-6.9,3.04-10.13,16.54-7.46,22.92.79,1.87,3.59,2.8,3.85,3.7.15.53-.72,5.5-.55,7.42.33,3.71,2.44,8.63,4.75,11.54l4.01,3.81-18.04-3.24c-3.75-11.27-11.36-21.79-19.85-29.99-2.79-2.7-10.98-10.47-13.78-3.72-1.11,2.68-.11,5.11.92,7.51-6.01-4.18-13.95-2.42-10.78,6.09l4.52,4.56c-1.78-.26-3.76-.48-5.45-1.12-4.72-1.75-13.94-7.44-18.54-10.28-3.46-2.13-6.71-4.63-10.18-6.74,6.09-17.63.03-36.28-13.75-48.27-4.98,13.32-3.31,28.94,4.7,40.72l-10.03-7.82-15.36-14.75c-.6-1.34,2-6.7,2.53-8.75,4.5-17.66,1.04-33.77-10.33-47.93l-2.19,3.46c-5.61,13.46-5.44,27.76-.33,41.34-4.62-6.01-11.03-12.93-14.53-19.6-3.43-6.54-2.37-15.48-.48-22.37.63-.46,4.53,4.13,8.73.28,7.83-7.21-6.24-17.93-9.69-7.18-.79,2.46-3.16,10.09-3.43,12.22-.35,2.81.26,6.2,0,9.09l-6.88-12.23c8.75-9.79,7.44-24.51,5.62-36.63-.66-.69-5.36,4.28-5.96,5-4.15,4.99-6.52,10.98-5.95,17.55-.16.21-.77-.37-.94-.62-3.02-4.55-8.34-23.46-9.91-29.56C-12.53,176.18,74.44,48.38,204.3,29.9l8.11-3.47c-73.62,7.16-140.18,52.37-175.12,117.14-28.41,52.63-34.33,114.86-16.76,172.16,3.11,10.14,7.39,19.82,11.44,29.59l-9.19-7.4c-5.23-3.56-11.02-6.37-17.22-7.84-.92-.21-6.08-1.91-5.52-.12.82,2.64,2.61,6.69,4.12,9.05,6.76,10.64,21.84,14.23,33.44,16.68,2.33,5.5,8.51,11.82,10.66,16.91.16.37.11,1.06-.3.93-1.54-.99-3.26-1.95-4.99-2.53-2.64-.89-6.62-1.21-8.68-1.96-1.36-.5-1.83-4.04-4.35-5.05-12.54-5.04-14.45,14.04-2.18,11.91,3.61-.63,4.5-4.19,5.78-4.31,2.54-.25,9.31,2.14,11.81,3.29,9.83,4.49,13.52,13.8,20.98,21.01l-.52,1.45c-.64-2.26-4.77-3.8-6.91-4.69-11.04-4.53-23.02-4.47-34.45-1.57.63,6.79,7.39,11.05,13.17,13.46,11.67,4.87,25.14,4.38,37.17,1.13l21.71,18.93c-3.48.38-6.77-.51-10.33-.3-7.97.45-16.03,3.67-22.44,8.25-1.12.79-7.57,5.57-6.7,6.77,9.23,5,18.26,4.77,28.34,2.97,7.91-1.4,15.4-4.4,22.36-8.31l23.85,13.81c-12.35,4.39-2.36,15.59,6.89,14.72l-5.92,3.16c-4.57,6.74,1.85,10.55,8.43,9.37-2.85,2.44-5.15,4.29-3.05,8.38,2.19,4.26,7.75,1.77,11.16.67,10.84-3.45,22.39-10.41,30.5-18.31,3.24,1.3,8.6,1.3,11.51,2.68.48.23.86.5.3.93-1.15.86-2.54,1.27-3.77,2.49-2.55,2.54-7.25,11.9-7.24,15.38.03,5.87,10.29,16.52,13.4,11.44,2.91-4.75-1.57-17.4-7.7-18.95,2.03-4.32,5.43-8.72,10.47-9.57,5.27-.9,16.88,1.9,23.05,2.35,5.55.4,11.28.11,16.86.64l.4-2.16c-.32-1.1-13.47-.84-15.38-.99ZM191.12,440.88h0c-2.81-4.01-.76-13.48,1.9-17.39.42-.62,2.97-3.15,3.74-2.36.47,4.59,1.09,9.3.47,13.94-.39,2.91-2.95,10.3-6.1,5.81ZM52.47,338.53c5.33.06,5.33,7.1.48,8.04-3.99-1.63-4.31-5.93-.48-8.04ZM3.78,332.81c8.31,1.59,16.47,6.13,22.92,11.54,2.64,2.23,4.82,5.28,7.15,7.87-12.13-2.53-24.87-7.17-30.07-19.41ZM36.97,345.95c-1.27,1.07-2.66-3.75-2.83-4.37-2.05-7.73-.46-14.65,3.82-21.27l2.77-3.17c1.15,9.65,1.43,20.26-3.76,28.81ZM29.93,372.11c-2.78,3.11-10.33-.16-6.58-5.33,3.77-2.88,9.83,1.68,6.58,5.33ZM33.9,400.1h0c-1.08-.64-7.49-5.21-6.31-6.52,14.99-3.5,31.96-.13,43.22,10.64-11.74,2.8-26.33,2.17-36.91-4.12ZM70.83,397.33h0c-9.27-14.35-11.17-31.58-5.01-47.61,7.34,8.75,10.21,21.62,9.41,32.91-.08,1.15-2.51,15.99-4.4,14.7ZM105.28,432.41c-13.38,5.63-30.52,12.29-44.48,5.33,10.8-8.41,22.52-12.25,36.24-9.29.98.21,9.51,2.29,8.24,3.97ZM106.53,429.29h0c-10.4-10.81-14.31-26.75-10.64-41.35l6.37,8.34c6.06,10.53,6.62,21.23,4.27,33ZM140.45,439.39h0c2.81-1.75,13.56,4.59,16.39,6.3,5.84,3.55,11.98,8.14,16.73,13.03-2.49-.84-4.71-2.19-7.2-3.14-7.68-2.91-16.23-3.94-22.83-9.12-2.21-1.73-4.6-4.16-3.09-7.08ZM152.87,479.7c-2.18.91-12.11,5.37-13.07,2.44-2.27-6.92,13.65-7.79,17.5-8.66,4.23-.96,8.31-2.44,12.51-3.46-4.99,3.76-11.16,7.28-16.94,9.68ZM164.43,468.71c-5.48,1.47-25.69,5.64-29.91,3.07-2.83-1.71.16-4.29,2.05-5.25,7.13-3.65,13.76-.79,21.03-.28,4.42.3,9.03-.21,13.46.01l-6.62,2.45ZM171.42,463.15h0c-9.58,1.13-28.7-.79-37.81-4.23-3.27-1.23-6.25-2.67-5.05-6.68,1.17-3.42,15.21-.21,18.21.42,9.27,1.94,17.96,5.42,26.81,8.59.17,1.63-.9,1.76-2.16,1.91ZM169.47,451.23h0c-1.83-1.47-3.83-2.9-5.74-4.28-4.28-3.1-12.19-6.45-13.73-12.01-1.13-4.09,2.44-4.36,5.41-2.23,4.68,3.37,10.56,11.05,14,15.77,1.5,2.07,3.22,4.12,4.77,6.18-1.54.71-3.29-2.29-4.72-3.43ZM189.97,487.75h0c.55,1.23,3.11,9.74.82,9.81-4.45-2.7-9.07-6.23-7.69-12.07.19-.81.69-2,1.52-2.27,2.39-.76,4.53,2.69,5.34,4.52Z"/>
      <path class="cls-1" d="M470.5,170.07c-.82-2.64-2.61-6.69-4.12-9.05-6.76-10.64-21.84-14.23-33.44-16.68-2.33-5.5-8.51-11.82-10.66-16.91-.16-.37-.11-1.06.3-.93,1.54.99,3.26,1.95,4.99,2.53,2.64.89,6.62,1.21,8.68,1.96,1.36.5,1.83,4.04,4.35,5.05,12.54,5.04,14.45-14.04,2.18-11.91-3.61.63-4.5,4.19-5.78,4.31-2.54.25-9.31-2.14-11.81-3.29-9.83-4.49-13.52-13.8-20.98-21.01l.52-1.45c.64,2.26,4.77,3.8,6.91,4.69,11.04,4.53,23.02,4.47,34.45,1.57-.63-6.79-7.39-11.05-13.17-13.46-11.67-4.87-25.14-4.38-37.17-1.13l-21.71-18.93c3.48-.38,6.77.51,10.33.3,7.97-.45,16.03-3.67,22.44-8.25,1.12-.79,7.57-5.57,6.7-6.77-9.23-5-18.26-4.77-28.34-2.97-7.91,1.4-15.4,4.4-22.36,8.31l-23.85-13.81c12.35-4.39,2.36-15.59-6.89-14.72l5.92-3.16c4.57-6.74-1.85-10.55-8.43-9.37,2.85-2.44,5.15-4.29,3.05-8.38-2.19-4.26-7.75-1.77-11.16-.67-10.84,3.45-22.39,10.41-30.5,18.31-3.24-1.3-8.6-1.3-11.51-2.68-.48-.23-.86-.5-.3-.93,1.15-.86,2.54-1.27,3.77-2.49,2.55-2.54,7.25-11.9,7.24-15.38-.03-5.87-10.29-16.52-13.4-11.44-2.91,4.75,1.57,17.4,7.7,18.95-2.03,4.32-5.43,8.72-10.47,9.57-5.27.9-16.88-1.9-23.05-2.35-5.55-.4-11.28-.11-16.86-.64l-.4,2.16c.32,1.1,13.47.84,15.38.99l-.02.02c5.56.44,13.21.65,17.81,3.49,5.7,3.53,9.31,10.15,9.48,16.84.18,6.71-2.18,4.57-4.34,8.88-2.3,4.59-2.87,17.33-.77,21.9,1.07,2.32,2.04,1.66,4.04.77,6.9-3.04,10.13-16.54,7.46-22.92-.79-1.87-3.59-2.8-3.85-3.7-.15-.53.72-5.5.55-7.42-.33-3.71-2.44-8.63-4.75-11.54l-4.01-3.81,18.04,3.24c3.75,11.27,11.36,21.79,19.85,29.99,2.79,2.7,10.98,10.47,13.78,3.72,1.11-2.68.11-5.11-.92-7.51,6.01,4.18,13.95,2.42,10.78-6.09l-4.52-4.56c1.78.26,3.76.48,5.45,1.12,4.72,1.75,13.94,7.44,18.54,10.28,3.46,2.13,6.71,4.63,10.18,6.74-6.09,17.63-.03,36.28,13.75,48.27,4.98-13.32,3.31-28.94-4.7-40.72l10.03,7.82,15.36,14.75c.6,1.34-2,6.7-2.53,8.75-4.5,17.66-1.04,33.77,10.33,47.93l2.19-3.46c5.61-13.46,5.44-27.76.33-41.34,4.62,6.01,11.03,12.93,14.53,19.6,3.43,6.54,2.37,15.48.48,22.37-.63.46-4.53-4.13-8.73-.28-7.83,7.21,6.24,17.93,9.69,7.18.79-2.46,3.16-10.09,3.43-12.22.35-2.81-.26-6.2,0-9.09l6.88,12.23c-8.75,9.79-7.44,24.51-5.62,36.63.66.69,5.36-4.28,5.96-5,4.15-4.99,6.52-10.98,5.95-17.55.16-.21.77.37.94.62,3.02,4.55,8.34,23.46,9.91,29.56,33.02,128.33-53.95,256.13-183.81,274.6l-8.11,3.47c73.62-7.16,140.18-52.37,175.12-117.14,28.41-52.63,34.33-114.86,16.76-172.16-3.11-10.14-7.39-19.82-11.44-29.59l9.19,7.4c5.23,3.56,11.02,6.37,17.22,7.84.92.21,6.08,1.91,5.52.12ZM440.61,127.93c2.78-3.11,10.33.16,6.58,5.33-3.77,2.88-9.83-1.68-6.58-5.33ZM280.57,12.29h0c-.55-1.23-3.11-9.74-.82-9.81,4.45,2.7,9.07,6.23,7.69,12.07-.19.81-.69,2-1.52,2.27-2.39.76-4.53-2.69-5.34-4.52ZM279.42,59.16h0c2.81,4.01.76,13.48-1.9,17.39-.42.62-2.97,3.15-3.74,2.36-.47-4.59-1.09-9.3-.47-13.94.39-2.91,2.95-10.3,6.1-5.81ZM317.67,20.34h0c2.18-.91,12.11-5.37,13.07-2.44,2.27,6.92-13.65,7.79-17.5,8.66-4.23.96-8.31,2.44-12.51,3.46,4.99-3.76,11.16-7.28,16.94-9.68ZM306.11,31.33c5.48-1.47,25.69-5.64,29.91-3.07,2.83,1.71-.16,4.29-2.05,5.25-7.13,3.65-13.76.79-21.03.28-4.42-.3-9.03.21-13.46-.01l6.62-2.45ZM315.12,67.33c-4.69-3.37-10.56-11.05-14-15.77-1.5-2.07-3.22-4.12-4.77-6.18,1.54-.71,3.29,2.29,4.72,3.43h0c1.83,1.47,3.83,2.9,5.74,4.28,4.28,3.1,12.19,6.45,13.73,12.01,1.13,4.09-2.44,4.36-5.41,2.23ZM330.09,60.64h0c-2.81,1.75-13.56-4.59-16.39-6.3-5.84-3.55-11.98-8.14-16.73-13.03,2.49.84,4.71,2.19,7.2,3.14,7.68,2.91,16.23,3.94,22.83,9.12,2.21,1.73,4.6,4.16,3.09,7.08ZM323.78,47.38c-9.27-1.94-17.96-5.42-26.81-8.59-.17-1.63.9-1.76,2.16-1.91h0c9.58-1.13,28.7.79,37.81,4.23,3.27,1.23,6.25,2.67,5.05,6.68-1.17,3.42-15.21.21-18.21-.42ZM374.65,112.1l-6.37-8.34c-6.06-10.53-6.62-21.23-4.27-33h0c10.4,10.81,14.31,26.75,10.64,41.35ZM365.26,67.63c13.37-5.63,30.52-12.29,44.48-5.33-10.8,8.41-22.52,12.25-36.24,9.29-.98-.21-9.51-2.29-8.24-3.97ZM436.64,99.94h0c1.08.64,7.49,5.21,6.31,6.52-14.99,3.5-31.96.13-43.22-10.64,11.74-2.8,26.33-2.17,36.91,4.12ZM404.73,150.32c-7.34-8.75-10.21-21.62-9.41-32.91.08-1.15,2.51-15.99,4.4-14.7h0c9.27,14.35,11.17,31.58,5.01,47.61ZM418.07,161.51c-5.33-.06-5.33-7.1-.48-8.04,3.99,1.63,4.31,5.93.48,8.04ZM432.58,179.73l-2.77,3.17c-1.15-9.65-1.43-20.26,3.76-28.81,1.27-1.07,2.66,3.75,2.83,4.37,2.05,7.73.46,14.65-3.82,21.27ZM443.84,155.68c-2.64-2.23-4.82-5.28-7.15-7.87,12.13,2.53,24.87,7.17,30.07,19.41-8.31-1.59-16.47-6.13-22.92-11.54Z"/>
    </g>
  </g>
</svg>