<svg xmlns="http://www.w3.org/2000/svg" viewBox="0 0 470.6 500">
  <path fill="#9f814d" d="M102.7 182.6c-1.2 0-2.7.3-4.3.8s-3.3 1.5-5.1 2.9c-1.7 1.4-3.4 3.4-5.1 5.9-1.6 2.5-3.1 5.8-4.4 9.8s-2.4 8.9-3.2 14.6-1.2 12.5-1.2 20.3.4 13.9 1.2 19.4 1.9 10.1 3.2 13.9 2.9 7 4.6 9.4 3.6 4.3 5.5 5.7 3.9 2.3 5.8 2.8 3.7.8 5.4.8 3.6-.2 5.4-.7 3.6-1.1 5.4-2 3.5-1.9 5.1-3.2c1.7-1.3 3.2-2.7 4.5-4.3l3.1 3.1c-1.4 1.7-3 3.4-5 5.2-1.9 1.8-4.2 3.4-6.7 4.8s-5.4 2.6-8.6 3.5-6.7 1.4-10.5 1.4c-6 0-11.6-1.1-16.8-3.4s-9.7-5.9-13.5-10.7-6.8-11.1-9-18.6c-2.2-7.6-3.3-16.6-3.3-27.2s1.1-18.6 3.4-26.1S64 197 68 191.9c3.9-5 8.6-8.8 13.9-11.4s11-3.8 17-3.8 7.6.4 10.9 1.1c3.3.8 6.1 1.9 8.5 3.3s4.2 3.2 5.5 5.4 2 4.6 2 7.3-.2 2.5-.6 3.9-1 2.6-1.9 3.7c-.8 1.1-1.9 2.1-3.1 2.8s-2.7 1.1-4.3 1.1-2.6-.3-3.4-1c-.8-.6-1.4-1.5-1.8-2.6s-.6-2.3-.8-3.6-.2-2.7-.2-4.2-.2-2.8-.3-4.2c-.2-1.4-.5-2.6-1-3.6-.5-1.1-1.2-1.9-2.1-2.6-.9-.6-2.2-1-3.9-1Zm51.4 31.2c-1.6 0-3 .2-4.3.6s-2.5.8-3.4 1.4-1.7 1.2-2.3 1.8-.8 1.3-.8 1.9.4 1.2 1.1 1.5 1.5.6 2.4 1 1.7.9 2.4 1.6 1.1 1.8 1.1 3.3-.2 1.9-.6 2.7-.9 1.5-1.6 2.1-1.4 1.1-2.3 1.4-1.8.5-2.8.5c-2.6 0-4.6-.9-6.2-2.6s-2.4-4.1-2.4-7 .7-5.2 2.2-7.2 3.4-3.6 5.7-4.9 5-2.2 8-2.9q4.5-.9 9-.9c4.5 0 7 .4 10.3 1.2s6.1 2 8.6 3.7 4.5 3.9 6 6.5 2.2 5.8 2.2 9.5v40.3c0 .5.2 1 .3 1.4.2.4.5.8.8 1 .4.3.9.4 1.6.4.8 0 1.6-.3 2.3-.9s1.3-1.3 1.9-1.9l1.7 1.4c-.7 1-1.5 2-2.5 3.2s-2.1 2.2-3.5 3.2-3 1.9-4.8 2.6-3.9 1-6.3 1-5.5-.9-7.7-2.6-3.7-4.4-4.4-8c-1.5 2-3 3.6-4.6 5-1.6 1.3-3.2 2.4-4.9 3.2s-3.3 1.4-5 1.8-3.4.6-5.1.6-4.3-.3-6.4-1-3.9-1.8-5.5-3.3-2.9-3.4-3.9-5.8q-1.5-3.6-1.5-8.7c0-5.1.8-7.6 2.5-10.3 1.6-2.7 3.8-4.9 6.5-6.7s5.7-3.4 9.2-4.6c3.5-1.3 7-2.7 10.5-4.1 2.7-1.1 4.6-2.6 5.8-4.7s1.8-4.2 1.8-6.4c0-3.4-1-6.1-3-8.2s-4.7-3.1-8.2-3.1Zm11 30.2c0-1.1-.4-2-1.1-2.6s-1.7-.9-2.8-.9-3.1.4-4.6 1.1c-1.4.7-2.7 1.8-3.8 3.2s-2 3.2-2.6 5.3-1 4.5-1 7.3.2 4.9.6 6.6.9 3.1 1.6 4.2 1.4 1.8 2.3 2.2 1.8.6 2.8.6 2.3-.3 3.4-.9 2-1.4 2.8-2.4 1.4-2 1.9-3.2.7-2.4.7-3.6v-16.8Zm59.4 29.6q0 .9-.3 2.1c-.3 1.2-.7 1.6-1.4 2.3-.8.7-1.9 1.4-3.3 1.9s-3.4.8-5.8.8-4.3-.3-5.7-.9-2.4-1.3-3.1-2-1.1-1.6-1.2-2.4-.2-1.5-.2-2v-88.8c0-1.3-.3-2.5-.9-3.5s-1.7-1.5-3.1-1.5-1.5.1-2 .4-1.2.6-1.8 1.1l-1.4-1.6c1.1-.9 2.2-1.7 3.5-2.6s2.7-1.6 4.2-2.2 3.2-1.2 4.9-1.6 3.6-.6 5.5-.6c3 0 5.3.4 7 1.2 1.6.8 2.9 1.8 3.7 3s1.3 2.4 1.4 3.7.2 2.5.2 3.5v89.7Zm77.9 0c0 .6 0 1.3-.3 2.1s-.6 1.6-1.3 2.3-1.8 1.4-3.2 1.9-3.4.8-5.8.8-4.4-.3-5.7-.9-2.5-1.3-3.2-2-1.2-1.6-1.3-2.4-.3-1.5-.3-2v-48.7c0-.6 0-1.3-.3-2s-.5-1.3-.8-1.8-.8-1-1.4-1.3c-.8-.5-1.2-.5-1.9-.5-1.2 0-2.5.4-3.7 1.1s-2.3 1.5-3.3 2.4-1.9 1.8-2.7 2.8c-.8.9-1.3 1.6-1.6 2.1v46.1c0 .6 0 1.3-.3 2.1-.2.8-.6 1.6-1.3 2.3s-1.8 1.4-3.2 1.9-3.3.8-5.7.8-4.4-.3-5.7-.9-2.5-1.3-3.2-2-1.2-1.6-1.4-2.4-.3-1.5-.3-2v-53.2c0-1.3-.3-2.5-.9-3.5s-1.7-1.5-3.1-1.5-1.4.1-2 .4-1.1.7-1.8 1.2l-1.4-1.7c1.1-.9 2.2-1.7 3.5-2.6s2.8-1.6 4.2-2.2c1.5-.6 3.1-1.2 4.9-1.6 1.7-.4 3.6-.6 5.5-.6 3 0 5.3.5 7 1.5 1.6 1 2.9 2.2 3.7 3.5.8 1.4 1.3 2.8 1.4 4.3s.2 2.7.2 3.8c2.2-2.4 4.5-4.6 7-6.5q1.5-1.2 3.3-2.4c1.8-1.2 2.5-1.5 3.8-2.1s2.6-1.1 4-1.5 2.8-.6 4.1-.6c2.7 0 4.9.5 6.8 1.4s3.4 2.1 4.5 3.5 2 2.8 2.5 4.3.8 2.8.8 3.9c2.2-2.4 4.5-4.6 7-6.5q1.5-1.2 3.3-2.4c1.8-1.2 2.4-1.5 3.8-2.1s2.6-1.1 4-1.5 2.7-.6 4.1-.6c2.7 0 4.9.5 6.8 1.5s3.4 2.3 4.5 3.9 2 3.4 2.5 5.4.8 4 .8 6.1v43.9c0 .5.2.9.3 1.4.2.4.5.8.9 1.1s.9.4 1.5.4 1.6-.3 2.3-.9 1.3-1.3 1.9-1.9l1.6 1.4c-.6 1-1.5 2-2.6 3.2s-2.3 2.3-3.8 3.3c-1.4 1.1-3.1 1.9-5 2.7-1.9.7-4.1 1.1-6.4 1.1s-3.8-.3-5.3-.8-2.8-1.2-3.8-2.1-1.8-2-2.3-3.2-.8-2.5-.8-3.9v-46c0-.6 0-1.3-.3-2s-.4-1.3-.8-1.8-.8-1-1.3-1.3-1.2-.5-1.9-.5c-1.2 0-2.5.4-3.7 1.1s-2.3 1.5-3.4 2.4c-1 .9-1.9 1.8-2.7 2.8s-1.3 1.6-1.6 2.1v46.1Zm73.8-59.8c-1.6 0-3 .2-4.3.6s-2.5.8-3.4 1.4-1.7 1.2-2.3 1.8-.8 1.3-.8 1.9.4 1.2 1.1 1.5 1.5.6 2.4 1 1.7.9 2.4 1.6 1.1 1.8 1.1 3.3-.2 1.9-.6 2.7-.9 1.5-1.6 2.1-1.4 1.1-2.3 1.4-1.8.5-2.8.5c-2.6 0-4.6-.9-6.2-2.6s-2.4-4.1-2.4-7 .7-5.2 2.2-7.2 3.4-3.6 5.7-4.9 5-2.2 8-2.9q4.5-.9 9-.9c4.5 0 7 .4 10.3 1.2s6.1 2 8.6 3.7 4.5 3.9 6 6.5 2.2 5.8 2.2 9.5v40.3c0 .5.2 1 .3 1.4.2.4.5.8.8 1s.9.4 1.6.4c.8 0 1.6-.3 2.3-.9s1.3-1.3 1.9-1.9l1.7 1.4c-.7 1-1.5 2-2.5 3.2s-2.1 2.2-3.5 3.2-3 1.9-4.8 2.6-3.9 1-6.3 1-5.5-.9-7.7-2.6-3.7-4.4-4.4-8c-1.5 2-3 3.6-4.6 5-1.6 1.3-3.2 2.4-4.9 3.2s-3.3 1.4-5 1.8-3.4.6-5.1.6-4.3-.3-6.4-1-3.9-1.8-5.5-3.3-2.9-3.4-3.9-5.8q-1.5-3.6-1.5-8.7c0-5.1.8-7.6 2.5-10.3 1.6-2.7 3.8-4.9 6.5-6.7s5.7-3.4 9.2-4.6c3.5-1.3 7-2.7 10.5-4.1 2.7-1.1 4.6-2.6 5.8-4.7s1.8-4.2 1.8-6.4c0-3.4-1-6.1-3-8.2s-4.7-3.1-8.2-3.1Zm10.9 30.2c0-1.1-.4-2-1.1-2.6s-1.7-.9-2.8-.9-3.1.4-4.6 1.1c-1.4.7-2.7 1.8-3.8 3.2s-2 3.2-2.6 5.3-1 4.5-1 7.3.2 4.9.6 6.6.9 3.1 1.6 4.2 1.4 1.8 2.3 2.2 1.8.6 2.8.6 2.3-.3 3.4-.9 2-1.4 2.8-2.4 1.4-2 1.9-3.2.7-2.4.7-3.6v-16.8Z"/>
  <path fill="#725029" d="M221.5 470c-5.6-.5-13.2-.7-17.8-3.5-5.7-3.5-9.3-10.2-9.5-16.8-.2-6.7 2.2-4.6 4.3-8.9 2.3-4.6 2.9-17.3.8-21.9-1.1-2.3-2-1.7-4-.8-6.9 3-10.1 16.5-7.5 22.9.8 1.9 3.6 2.8 3.8 3.7.2.5-.7 5.5-.6 7.4.3 3.7 2.4 8.6 4.7 11.5l4 3.8-18-3.2c-3.8-11.3-11.4-21.8-19.8-30-2.8-2.7-11-10.5-13.8-3.7-1.1 2.7-.1 5.1.9 7.5-6-4.2-13.9-2.4-10.8 6.1l4.5 4.6c-1.8-.3-3.8-.5-5.5-1.1-4.7-1.8-13.9-7.4-18.5-10.3-3.5-2.1-6.7-4.6-10.2-6.7 6.1-17.6 0-36.3-13.8-48.3-5 13.3-3.3 28.9 4.7 40.7l-10-7.8L74 400.4c-.6-1.3 2-6.7 2.5-8.8 4.5-17.7 1-33.8-10.3-47.9l-2.2 3.5c-5.6 13.5-5.4 27.8-.3 41.3-4.6-6-11-12.9-14.5-19.6-3.4-6.5-2.4-15.5-.5-22.4.6-.5 4.5 4.1 8.7.3 7.8-7.2-6.2-17.9-9.7-7.2-.8 2.5-3.2 10.1-3.4 12.2-.4 2.8.3 6.2 0 9.1l-6.9-12.2c8.7-9.8 7.4-24.5 5.6-36.6-.7-.7-5.4 4.3-6 5-4.1 5-6.5 11-6 17.5-.2.2-.8-.4-.9-.6-3-4.6-8.3-23.5-9.9-29.6-32.7-128.2 54.3-256 184.1-274.5l8.1-3.5C138.8 33.6 72.2 78.8 37.3 143.5 8.9 196.1 3 258.4 20.5 315.7c3.1 10.1 7.4 19.8 11.4 29.6l-9.2-7.4c-5.2-3.6-11-6.4-17.2-7.8-.9-.2-6.1-1.9-5.5-.1.8 2.6 2.6 6.7 4.1 9 6.8 10.6 21.8 14.2 33.4 16.7 2.3 5.5 8.5 11.8 10.7 16.9.2.4.1 1.1-.3.9-1.5-1-3.3-2-5-2.5-2.6-.9-6.6-1.2-8.7-2-1.4-.5-1.8-4-4.4-5.1-12.5-5-14.5 14-2.2 11.9 3.6-.6 4.5-4.2 5.8-4.3 2.5-.2 9.3 2.1 11.8 3.3 9.8 4.5 13.5 13.8 21 21l-.5 1.4c-.6-2.3-4.8-3.8-6.9-4.7-11-4.5-23-4.5-34.5-1.6.6 6.8 7.4 11.1 13.2 13.5 11.7 4.9 25.1 4.4 37.2 1.1l21.7 18.9c-3.5.4-6.8-.5-10.3-.3-8 .5-16 3.7-22.4 8.2-1.1.8-7.6 5.6-6.7 6.8 9.2 5 18.3 4.8 28.3 3 7.9-1.4 15.4-4.4 22.4-8.3l23.9 13.8c-12.4 4.4-2.4 15.6 6.9 14.7l-5.9 3.2c-4.6 6.7 1.8 10.5 8.4 9.4-2.8 2.4-5.2 4.3-3 8.4 2.2 4.3 7.7 1.8 11.2.7 10.8-3.5 22.4-10.4 30.5-18.3 3.2 1.3 8.6 1.3 11.5 2.7.5.2.9.5.3.9-1.1.9-2.5 1.3-3.8 2.5-2.6 2.5-7.2 11.9-7.2 15.4 0 5.9 10.3 16.5 13.4 11.4 2.9-4.7-1.6-17.4-7.7-18.9 2-4.3 5.4-8.7 10.5-9.6 5.3-.9 16.9 1.9 23 2.3 5.6.4 11.3.1 16.9.6l.4-2.2c-.3-1.1-13.5-.8-15.4-1Zm-30.4-29.1c-2.8-4-.8-13.5 1.9-17.4.4-.6 3-3.1 3.7-2.4.5 4.6 1.1 9.3.5 13.9-.4 2.9-2.9 10.3-6.1 5.8ZM52.5 338.5c5.3 0 5.3 7.1.5 8-4-1.6-4.3-5.9-.5-8m-48.7-5.7c8.3 1.6 16.5 6.1 22.9 11.5 2.6 2.2 4.8 5.3 7.2 7.9C21.8 349.7 9 345 3.8 332.8M37 345.9c-1.3 1.1-2.7-3.8-2.8-4.4-2.1-7.7-.5-14.7 3.8-21.3l2.8-3.2c1.2 9.6 1.4 20.3-3.8 28.8Zm-7.1 26.2c-2.8 3.1-10.3-.2-6.6-5.3 3.8-2.9 9.8 1.7 6.6 5.3m4 28c-1.1-.6-7.5-5.2-6.3-6.5 15-3.5 32-.1 43.2 10.6-11.7 2.8-26.3 2.2-36.9-4.1m36.9-2.8c-9.3-14.4-11.2-31.6-5-47.6 7.3 8.8 10.2 21.6 9.4 32.9 0 1.1-2.5 16-4.4 14.7m34.5 35.1c-13.4 5.6-30.5 12.3-44.5 5.3 10.8-8.4 22.5-12.2 36.2-9.3 1 .2 9.5 2.3 8.2 4Zm1.2-3.1c-10.4-10.8-14.3-26.7-10.6-41.3l6.4 8.3c6.1 10.5 6.6 21.2 4.3 33Zm34 10.1c2.8-1.8 13.6 4.6 16.4 6.3 5.8 3.5 12 8.1 16.7 13-2.5-.8-4.7-2.2-7.2-3.1-7.7-2.9-16.2-3.9-22.8-9.1-2.2-1.7-4.6-4.2-3.1-7.1m12.4 40.3c-2.2.9-12.1 5.4-13.1 2.4-2.3-6.9 13.7-7.8 17.5-8.7 4.2-1 8.3-2.4 12.5-3.5-5 3.8-11.2 7.3-16.9 9.7Zm11.5-11c-5.5 1.5-25.7 5.6-29.9 3.1-2.8-1.7.2-4.3 2-5.3 7.1-3.7 13.8-.8 21-.3 4.4.3 9-.2 13.5 0l-6.6 2.4Zm7-5.6c-9.6 1.1-28.7-.8-37.8-4.2-3.3-1.2-6.3-2.7-5.1-6.7 1.2-3.4 15.2-.2 18.2.4 9.3 1.9 18 5.4 26.8 8.6.2 1.6-.9 1.8-2.2 1.9Zm-1.9-11.9c-1.8-1.5-3.8-2.9-5.7-4.3-4.3-3.1-12.2-6.4-13.7-12-1.1-4.1 2.4-4.4 5.4-2.2 4.7 3.4 10.6 11 14 15.8 1.5 2.1 3.2 4.1 4.8 6.2-1.5.7-3.3-2.3-4.7-3.4Zm20.5 36.5c.5 1.2 3.1 9.7.8 9.8-4.5-2.7-9.1-6.2-7.7-12.1.2-.8.7-2 1.5-2.3 2.4-.8 4.5 2.7 5.3 4.5Zm280.5-317.6c-.8-2.6-2.6-6.7-4.1-9-6.8-10.6-21.8-14.2-33.4-16.7-2.3-5.5-8.5-11.8-10.7-16.9-.2-.4-.1-1.1.3-.9 1.5 1 3.3 2 5 2.5 2.6.9 6.6 1.2 8.7 2 1.4.5 1.8 4 4.4 5.1 12.5 5 14.5-14 2.2-11.9-3.6.6-4.5 4.2-5.8 4.3-2.5.2-9.3-2.1-11.8-3.3-9.8-4.5-13.5-13.8-21-21l.5-1.4c.6 2.3 4.8 3.8 6.9 4.7 11 4.5 23 4.5 34.5 1.6-.6-6.8-7.4-11.1-13.2-13.5-11.7-4.9-25.1-4.4-37.2-1.1l-21.7-18.9c3.5-.4 6.8.5 10.3.3 8-.5 16-3.7 22.4-8.2 1.1-.8 7.6-5.6 6.7-6.8-9.2-5-18.3-4.8-28.3-3-7.9 1.4-15.4 4.4-22.4 8.3l-23.9-13.8c12.4-4.4 2.4-15.6-6.9-14.7l5.9-3.2c4.6-6.7-1.8-10.5-8.4-9.4 2.8-2.4 5.2-4.3 3-8.4-2.2-4.3-7.7-1.8-11.2-.7-10.8 3.5-22.4 10.4-30.5 18.3-3.2-1.3-8.6-1.3-11.5-2.7-.5-.2-.9-.5-.3-.9 1.1-.9 2.5-1.3 3.8-2.5 2.6-2.5 7.2-11.9 7.2-15.4 0-5.9-10.3-16.5-13.4-11.4-2.9 4.7 1.6 17.4 7.7 18.9-2 4.3-5.4 8.7-10.5 9.6-5.3.9-16.9-1.9-23-2.3-5.6-.4-11.3-.1-16.9-.6l-.4 2.2c.3 1.1 13.5.8 15.4 1 5.6.5 13.2.7 17.8 3.5 5.7 3.5 9.3 10.2 9.5 16.8.2 6.7-2.2 4.6-4.3 8.9-2.3 4.6-2.9 17.3-.8 21.9 1.1 2.3 2 1.7 4 .8 6.9-3 10.1-16.5 7.5-22.9-.8-1.9-3.6-2.8-3.8-3.7-.2-.5.7-5.5.6-7.4-.3-3.7-2.4-8.6-4.7-11.5l-4-3.8 18 3.2c3.8 11.3 11.4 21.8 19.8 30 2.8 2.7 11 10.5 13.8 3.7 1.1-2.7.1-5.1-.9-7.5 6 4.2 13.9 2.4 10.8-6.1l-4.5-4.6c1.8.3 3.8.5 5.5 1.1 4.7 1.8 13.9 7.4 18.5 10.3 3.5 2.1 6.7 4.6 10.2 6.7-6.1 17.6 0 36.3 13.8 48.3 5-13.3 3.3-28.9-4.7-40.7l10 7.8 15.4 14.8c.6 1.3-2 6.7-2.5 8.8-4.5 17.7-1 33.8 10.3 47.9l2.2-3.5c5.6-13.5 5.4-27.8.3-41.3 4.6 6 11 12.9 14.5 19.6 3.4 6.5 2.4 15.5.5 22.4-.6.5-4.5-4.1-8.7-.3-7.8 7.2 6.2 17.9 9.7 7.2.8-2.5 3.2-10.1 3.4-12.2.4-2.8-.3-6.2 0-9.1l6.9 12.2c-8.7 9.8-7.4 24.5-5.6 36.6.7.7 5.4-4.3 6-5 4.1-5 6.5-11 6-17.5.2-.2.8.4.9.6 3 4.6 8.3 23.5 9.9 29.6 33 128.3-53.9 256.1-183.8 274.6l-8.1 3.5c73.6-7.2 140.2-52.4 175.1-117.1 28.4-52.6 34.3-114.9 16.8-172.2-3.1-10.1-7.4-19.8-11.4-29.6l9.2 7.4c5.2 3.6 11 6.4 17.2 7.8.9.2 6.1 1.9 5.5.1Zm-29.9-42.2c2.8-3.1 10.3.2 6.6 5.3-3.8 2.9-9.8-1.7-6.6-5.3m-160-115.6c-.5-1.2-3.1-9.7-.8-9.8 4.5 2.7 9.1 6.2 7.7 12.1-.2.8-.7 2-1.5 2.3-2.4.8-4.5-2.7-5.3-4.5Zm-1.2 46.8c2.8 4 .8 13.5-1.9 17.4-.4.6-3 3.1-3.7 2.4-.5-4.6-1.1-9.3-.5-13.9.4-2.9 2.9-10.3 6.1-5.8Zm38.3-38.8c2.2-.9 12.1-5.4 13.1-2.4 2.3 6.9-13.7 7.8-17.5 8.7-4.2 1-8.3 2.4-12.5 3.5 5-3.8 11.2-7.3 16.9-9.7Zm-11.6 11c5.5-1.5 25.7-5.6 29.9-3.1 2.8 1.7-.2 4.3-2 5.3-7.1 3.7-13.8.8-21 .3-4.4-.3-9 .2-13.5 0l6.6-2.4Zm9 36c-4.7-3.4-10.6-11-14-15.8-1.5-2.1-3.2-4.1-4.8-6.2 1.5-.7 3.3 2.3 4.7 3.4 1.8 1.5 3.8 2.9 5.7 4.3 4.3 3.1 12.2 6.4 13.7 12 1.1 4.1-2.4 4.4-5.4 2.2Zm15-6.7c-2.8 1.8-13.6-4.6-16.4-6.3-5.8-3.5-12-8.1-16.7-13 2.5.8 4.7 2.2 7.2 3.1 7.7 2.9 16.2 3.9 22.8 9.1 2.2 1.7 4.6 4.2 3.1 7.1m-6.3-13.2c-9.3-1.9-18-5.4-26.8-8.6-.2-1.6.9-1.8 2.2-1.9 9.6-1.1 28.7.8 37.8 4.2 3.3 1.2 6.3 2.7 5.1 6.7-1.2 3.4-15.2.2-18.2-.4Zm50.9 64.7-6.4-8.3c-6.1-10.5-6.6-21.2-4.3-33 10.4 10.8 14.3 26.7 10.6 41.3Zm-9.4-44.5c13.4-5.6 30.5-12.3 44.5-5.3-10.8 8.4-22.5 12.2-36.2 9.3-1-.2-9.5-2.3-8.2-4Zm71.3 32.3c1.1.6 7.5 5.2 6.3 6.5-15 3.5-32 .1-43.2-10.6 11.7-2.8 26.3-2.2 36.9 4.1m-31.9 50.4c-7.3-8.8-10.2-21.6-9.4-32.9 0-1.1 2.5-16 4.4-14.7 9.3 14.4 11.2 31.6 5 47.6m13.4 11.2c-5.3 0-5.3-7.1-.5-8 4 1.6 4.3 5.9.5 8m14.5 18.2-2.8 3.2c-1.2-9.6-1.4-20.3 3.8-28.8 1.3-1.1 2.7 3.8 2.8 4.4 2.1 7.7.5 14.7-3.8 21.3Zm11.3-24c-2.6-2.2-4.8-5.3-7.2-7.9 12.1 2.5 24.9 7.2 30.1 19.4-8.3-1.6-16.5-6.1-22.9-11.5"/>
</svg>
