<svg height="24" width="21" data-iconName="bars" xmlns="http://www.w3.org/2000/svg" viewBox="0 0 448 512"><defs><style>.fa-secondary{opacity:.4}</style></defs><path class="fa-secondary" d="M0 256c0-17.7 14.3-32 32-32l384 0c17.7 0 32 14.3 32 32s-14.3 32-32 32L32 288c-17.7 0-32-14.3-32-32z"/><path class="fa-primary" d="M448 96c0-17.7-14.3-32-32-32L32 64C14.3 64 0 78.3 0 96s14.3 32 32 32l384 0c17.7 0 32-14.3 32-32zm0 320c0-17.7-14.3-32-32-32L32 384c-17.7 0-32 14.3-32 32s14.3 32 32 32l384 0c17.7 0 32-14.3 32-32z"/></svg>