<svg data-iconName="eeuu" width="24" height="24" viewBox="0 0 1.08 1.08" xmlns="http://www.w3.org/2000/svg" aria-hidden="true" class="iconify iconify--twemoji"><path fill="#B22334" d="M1.063.21A.12.12 0 0 0 .96.15H.54v.06zM0 .75h1.08v.06H0zM.54.51h.54v.06H.54zm0-.12h.54v.06H.54zM0 .63h1.08v.06H0zm.12.3h.84a.12.12 0 0 0 .103-.06H.017C.038.906.076.93.12.93M.54.27h.54v.06H.54z"/><path fill="#EEE" d="m.002.83.002.008.003.009.01.022V.87h1.047l.01-.022.005-.017.002-.02H0l.002.02M0 .69h1.08v.06H0zm0-.12v.06h1.08V.57H.54zM.54.45h.54v.06H.54zm0-.12h.54v.06H.54zM.004.241.007.232zM.54.27h.54L1.078.25 1.073.233 1.063.21H.54z"/><path fill="#3C3B6E" d="M.54.15H.12A.12.12 0 0 0 0 .27v.3h.54z"/><path fill="#FFF" d="m.06.232.019.013-.007.022L.09.254l.019.013L.102.245.12.232H.097L.09.21.083.232zm.06.06.019.013-.007.022.019-.013.019.013L.163.305.18.292H.157L.15.27.143.292zm.12 0 .019.013-.007.022.019-.013.019.013L.283.305.302.292H.279L.27.27.263.292zm.12 0 .019.013-.007.022.019-.013.019.013L.403.305.422.292H.399L.39.27.383.292zm-.24.12.019.013-.007.022.019-.013.019.013L.163.425.182.412H.159L.15.39.143.412zm.12 0 .019.013-.007.022.019-.013.019.013L.283.425.302.412H.279L.27.39.263.412zm.12 0 .019.013-.007.022.019-.013.019.013L.403.425.422.412H.399L.39.39.383.412zM.18.232l.019.013-.007.022L.21.254l.019.013L.222.245.24.232H.217L.21.21.203.232zm.12 0 .019.013-.007.022.019-.013.019.013L.343.245.362.232H.339L.33.21.323.232zm.12 0 .019.013-.007.022.019-.013.019.013L.463.245.482.232H.459L.45.21.443.232zm-.36.12.019.013-.007.022.019-.013.019.013L.103.365.122.352H.099L.09.33.083.352zm.131.035L.21.374l.019.013L.222.365.241.352H.218L.21.33.203.352H.18l.019.013zM.3.352l.019.013-.007.022.019-.013.019.013L.343.365.362.352H.339L.33.33.323.352zm.12 0 .019.013-.007.022.019-.013.019.013L.463.365.482.352H.459L.45.33.443.352zm-.36.12.019.013-.007.022.019-.013.019.013L.103.485.122.472H.099L.09.45.083.472zm.131.035L.21.494l.019.013L.222.485.241.472H.218L.21.45.203.472H.18l.019.013zM.3.472l.019.013-.007.022.019-.013.019.013L.343.485.362.472H.339L.33.45.323.472zm.12 0 .019.013-.007.022.019-.013.019.013L.463.485.482.472H.459L.45.45.443.472z"/></svg>