<?xml version="1.0" encoding="UTF-8"?>
<svg id="Capa_2" data-name="Capa 2" xmlns="http://www.w3.org/2000/svg" viewBox="0 0 747.26 794.02">
  <defs>
    <style>
      .cls-1 {
        fill: #9f814d;
      }

      .cls-2 {
        opacity: .99;
      }
    </style>
  </defs>
  <g id="Capa_1-2" data-name="Capa 1">
    <g>
      <g class="cls-2">
        <path class="cls-1" d="M163.02,290.01c-1.97,0-4.27.4-6.89,1.2-2.62.8-5.3,2.32-8.04,4.54-2.73,2.23-5.41,5.34-8.04,9.35-2.62,4.01-4.98,9.21-7.05,15.59-2.08,6.38-3.76,14.13-5.03,23.24-1.28,9.12-1.91,19.87-1.91,32.27s.64,22.06,1.91,30.73c1.28,8.68,2.99,16.06,5.14,22.15,2.15,6.09,4.61,11.07,7.38,14.93,2.77,3.86,5.69,6.87,8.75,9.02,3.06,2.15,6.12,3.63,9.19,4.43,3.06.8,5.94,1.2,8.64,1.2,2.84,0,5.72-.37,8.64-1.09,2.92-.73,5.78-1.79,8.59-3.17,2.81-1.39,5.5-3.06,8.09-5.03,2.59-1.97,4.98-4.23,7.16-6.78l4.92,4.92c-2.19,2.7-4.81,5.45-7.88,8.26-3.06,2.81-6.62,5.36-10.66,7.66s-8.59,4.17-13.62,5.63c-5.03,1.46-10.61,2.19-16.73,2.19-9.55,0-18.43-1.82-26.63-5.47-8.2-3.65-15.35-9.32-21.44-17.01-6.09-7.69-10.87-17.55-14.33-29.59-3.46-12.03-5.2-26.43-5.2-43.2,0-15.75,1.82-29.57,5.47-41.45,3.65-11.88,8.6-21.82,14.88-29.8,6.27-7.98,13.63-14,22.09-18.05,8.46-4.05,17.46-6.07,27.02-6.07,6.34,0,12.12.6,17.34,1.8,5.21,1.2,9.72,2.95,13.51,5.25,3.79,2.3,6.73,5.14,8.8,8.53s3.12,7.24,3.12,11.54c0,1.97-.33,4.03-.98,6.18-.66,2.15-1.66,4.12-3.01,5.91-1.35,1.79-3.01,3.25-4.98,4.38-1.97,1.13-4.27,1.7-6.89,1.7-2.33,0-4.14-.51-5.41-1.53-1.28-1.02-2.22-2.37-2.84-4.05-.62-1.68-1.02-3.59-1.2-5.74-.18-2.15-.31-4.36-.38-6.62-.07-2.26-.24-4.47-.49-6.62-.26-2.15-.77-4.06-1.53-5.74-.77-1.68-1.88-3.02-3.34-4.05-1.46-1.02-3.5-1.53-6.12-1.53Z"/>
        <path class="cls-1" d="M244.79,339.56c-2.48,0-4.78.29-6.89.88-2.12.58-3.94,1.31-5.47,2.19s-2.73,1.84-3.61,2.9c-.88,1.06-1.31,2.06-1.31,3.01,0,1.09.56,1.88,1.7,2.35,1.13.48,2.39,1.02,3.77,1.64,1.38.62,2.64,1.5,3.77,2.62,1.13,1.13,1.7,2.86,1.7,5.2,0,1.53-.31,2.94-.93,4.21-.62,1.28-1.46,2.41-2.52,3.39-1.06.98-2.3,1.75-3.72,2.3s-2.9.82-4.43.82c-4.08,0-7.38-1.38-9.9-4.16-2.52-2.77-3.77-6.45-3.77-11.05s1.17-8.26,3.5-11.43c2.33-3.17,5.38-5.78,9.13-7.82,3.75-2.04,8-3.55,12.74-4.54,4.74-.98,9.48-1.48,14.22-1.48,5.69,0,11.12.62,16.3,1.86,5.18,1.24,9.75,3.21,13.73,5.91,3.97,2.7,7.15,6.12,9.52,10.28,2.37,4.16,3.55,9.19,3.55,15.09v61.8c0,.66.04,1.39.11,2.19.07.8.25,1.53.55,2.19.29.66.73,1.2,1.31,1.64.58.44,1.42.66,2.52.66,1.31,0,2.53-.49,3.66-1.48,1.13-.98,2.13-1.99,3.01-3.01l2.73,2.3c-1.09,1.53-2.41,3.21-3.94,5.03-1.53,1.82-3.39,3.54-5.58,5.14-2.19,1.6-4.74,2.95-7.66,4.05-2.92,1.09-6.23,1.64-9.95,1.64-4.59,0-8.68-1.37-12.25-4.1-3.57-2.73-5.91-6.95-7-12.63-2.33,3.14-4.76,5.76-7.27,7.88-2.52,2.12-5.09,3.83-7.71,5.14s-5.27,2.26-7.93,2.84c-2.66.58-5.34.88-8.04.88-3.5,0-6.89-.55-10.17-1.64s-6.22-2.83-8.8-5.2c-2.59-2.37-4.67-5.45-6.23-9.24-1.57-3.79-2.35-8.42-2.35-13.89,0-6.63,1.31-12.07,3.94-16.3,2.62-4.23,6.07-7.78,10.34-10.66,4.27-2.88,9.11-5.34,14.55-7.38,5.43-2.04,10.99-4.19,16.68-6.45,4.23-1.68,7.31-4.17,9.24-7.49,1.93-3.32,2.9-6.73,2.9-10.23,0-5.4-1.59-9.72-4.76-12.96-3.17-3.24-7.49-4.87-12.96-4.87ZM262.18,387.47c0-1.82-.58-3.21-1.75-4.16-1.17-.95-2.66-1.42-4.48-1.42-2.55,0-4.98.58-7.27,1.75-2.3,1.17-4.32,2.88-6.07,5.14-1.75,2.26-3.14,5.05-4.16,8.37-1.02,3.32-1.53,7.16-1.53,11.54s.31,7.73.93,10.5c.62,2.77,1.46,4.98,2.52,6.62,1.06,1.64,2.28,2.79,3.66,3.45,1.38.66,2.84.98,4.38.98,1.9,0,3.68-.49,5.36-1.48,1.68-.98,3.13-2.24,4.38-3.77,1.24-1.53,2.22-3.24,2.95-5.14.73-1.9,1.09-3.79,1.09-5.69v-26.69Z"/>
        <path class="cls-1" d="M356.53,434.5c0,.95-.16,2.08-.49,3.39s-1.09,2.55-2.3,3.72c-1.2,1.17-2.95,2.17-5.25,3.01s-5.38,1.26-9.24,1.26-6.89-.46-9.08-1.37-3.81-1.99-4.87-3.23c-1.06-1.24-1.71-2.52-1.97-3.83-.26-1.31-.38-2.37-.38-3.17v-141.09c0-2.11-.49-3.95-1.48-5.52-.98-1.57-2.64-2.35-4.98-2.35-1.24,0-2.32.2-3.23.6-.91.4-1.88,1-2.9,1.8l-2.19-2.62c1.68-1.38,3.54-2.75,5.58-4.1,2.04-1.35,4.28-2.53,6.73-3.55,2.44-1.02,5.05-1.86,7.82-2.52,2.77-.66,5.69-.98,8.75-.98,4.74,0,8.42.64,11.05,1.91,2.62,1.28,4.56,2.84,5.8,4.7,1.24,1.86,1.99,3.83,2.24,5.91.25,2.08.38,3.92.38,5.52v142.52Z"/>
        <path class="cls-1" d="M480.19,434.5c0,.95-.15,2.08-.44,3.39-.29,1.31-1,2.55-2.13,3.72-1.13,1.17-2.83,2.17-5.09,3.01-2.26.84-5.32,1.26-9.19,1.26s-6.91-.46-9.13-1.37c-2.22-.91-3.9-1.99-5.03-3.23-1.13-1.24-1.84-2.52-2.13-3.83-.29-1.31-.44-2.37-.44-3.17v-77.33c0-1.02-.15-2.06-.44-3.12-.29-1.06-.73-2.02-1.31-2.9-.58-.88-1.31-1.59-2.19-2.13s-1.9-.82-3.06-.82c-1.97,0-3.9.57-5.8,1.7-1.9,1.13-3.66,2.42-5.3,3.88-1.64,1.46-3.06,2.92-4.27,4.38-1.2,1.46-2.06,2.55-2.57,3.28v73.28c0,.95-.15,2.08-.44,3.39-.29,1.31-1,2.55-2.13,3.72-1.13,1.17-2.81,2.17-5.03,3.01-2.22.84-5.27,1.26-9.13,1.26s-6.91-.46-9.13-1.37c-2.22-.91-3.92-1.99-5.09-3.23-1.17-1.24-1.9-2.52-2.19-3.83-.29-1.31-.44-2.37-.44-3.17v-84.44c0-2.11-.49-3.95-1.48-5.52-.98-1.57-2.64-2.35-4.98-2.35-1.24,0-2.3.22-3.17.66s-1.82,1.06-2.84,1.86l-2.3-2.73c1.68-1.38,3.55-2.75,5.63-4.1,2.08-1.35,4.32-2.53,6.73-3.55,2.41-1.02,4.99-1.86,7.77-2.52,2.77-.66,5.69-.98,8.75-.98,4.74,0,8.42.78,11.05,2.35,2.62,1.57,4.56,3.45,5.8,5.63,1.24,2.19,1.99,4.47,2.24,6.84.25,2.37.38,4.36.38,5.96,3.43-3.86,7.11-7.33,11.05-10.39,1.6-1.31,3.37-2.59,5.3-3.83,1.93-1.24,3.92-2.35,5.96-3.34,2.04-.98,4.16-1.77,6.34-2.35,2.19-.58,4.38-.88,6.56-.88,4.23,0,7.84.77,10.83,2.3,2.99,1.53,5.4,3.37,7.22,5.52,1.82,2.15,3.15,4.41,3.99,6.78.84,2.37,1.26,4.43,1.26,6.18,3.5-3.86,7.18-7.33,11.05-10.39,1.6-1.31,3.35-2.59,5.25-3.83,1.9-1.24,3.88-2.35,5.96-3.34s4.19-1.77,6.34-2.35c2.15-.58,4.32-.88,6.51-.88,4.23,0,7.84.78,10.83,2.35,2.99,1.57,5.4,3.63,7.22,6.18,1.82,2.55,3.15,5.43,3.99,8.64.84,3.21,1.26,6.42,1.26,9.62v67.7c0,.66.04,1.37.11,2.13.07.77.25,1.5.55,2.19.29.69.75,1.26,1.37,1.7.62.44,1.44.66,2.46.66,1.38,0,2.62-.49,3.72-1.48s2.11-1.99,3.06-3.01l2.62,2.3c-1.02,1.53-2.37,3.23-4.05,5.09-1.68,1.86-3.66,3.63-5.96,5.3-2.3,1.68-4.96,3.08-7.98,4.21-3.03,1.13-6.44,1.7-10.23,1.7-3.21,0-6-.42-8.37-1.26-2.37-.84-4.38-1.97-6.02-3.39s-2.86-3.1-3.66-5.03c-.8-1.93-1.2-3.99-1.2-6.18v-73.06c0-1.02-.15-2.06-.44-3.12-.29-1.06-.71-2.02-1.26-2.9s-1.26-1.59-2.13-2.13-1.9-.82-3.06-.82c-1.97,0-3.92.57-5.85,1.7-1.93,1.13-3.72,2.42-5.36,3.88-1.64,1.46-3.04,2.92-4.21,4.38-1.17,1.46-2.01,2.55-2.52,3.28v73.28Z"/>
        <path class="cls-1" d="M597.4,339.56c-2.48,0-4.78.29-6.89.88-2.12.58-3.94,1.31-5.47,2.19s-2.73,1.84-3.61,2.9c-.88,1.06-1.31,2.06-1.31,3.01,0,1.09.56,1.88,1.7,2.35,1.13.48,2.39,1.02,3.77,1.64,1.38.62,2.64,1.5,3.77,2.62,1.13,1.13,1.7,2.86,1.7,5.2,0,1.53-.31,2.94-.93,4.21-.62,1.28-1.46,2.41-2.52,3.39-1.06.98-2.3,1.75-3.72,2.3s-2.9.82-4.43.82c-4.08,0-7.38-1.38-9.9-4.16-2.52-2.77-3.77-6.45-3.77-11.05s1.17-8.26,3.5-11.43c2.33-3.17,5.38-5.78,9.13-7.82,3.75-2.04,8-3.55,12.74-4.54,4.74-.98,9.48-1.48,14.22-1.48,5.69,0,11.12.62,16.3,1.86,5.18,1.24,9.75,3.21,13.73,5.91,3.97,2.7,7.15,6.12,9.52,10.28,2.37,4.16,3.55,9.19,3.55,15.09v61.8c0,.66.04,1.39.11,2.19.07.8.25,1.53.55,2.19.29.66.73,1.2,1.31,1.64.58.44,1.42.66,2.52.66,1.31,0,2.53-.49,3.66-1.48,1.13-.98,2.13-1.99,3.01-3.01l2.73,2.3c-1.09,1.53-2.41,3.21-3.94,5.03-1.53,1.82-3.39,3.54-5.58,5.14-2.19,1.6-4.74,2.95-7.66,4.05-2.92,1.09-6.23,1.64-9.95,1.64-4.59,0-8.68-1.37-12.25-4.1-3.57-2.73-5.91-6.95-7-12.63-2.33,3.14-4.76,5.76-7.27,7.88-2.52,2.12-5.09,3.83-7.71,5.14s-5.27,2.26-7.93,2.84c-2.66.58-5.34.88-8.04.88-3.5,0-6.89-.55-10.17-1.64s-6.22-2.83-8.8-5.2c-2.59-2.37-4.67-5.45-6.23-9.24-1.57-3.79-2.35-8.42-2.35-13.89,0-6.63,1.31-12.07,3.94-16.3,2.62-4.23,6.07-7.78,10.34-10.66,4.27-2.88,9.11-5.34,14.55-7.38,5.43-2.04,10.99-4.19,16.68-6.45,4.23-1.68,7.31-4.17,9.24-7.49,1.93-3.32,2.9-6.73,2.9-10.23,0-5.4-1.59-9.72-4.76-12.96-3.17-3.24-7.49-4.87-12.96-4.87ZM614.79,387.47c0-1.82-.58-3.21-1.75-4.16-1.17-.95-2.66-1.42-4.48-1.42-2.55,0-4.98.58-7.27,1.75-2.3,1.17-4.32,2.88-6.07,5.14-1.75,2.26-3.14,5.05-4.16,8.37-1.02,3.32-1.53,7.16-1.53,11.54s.31,7.73.93,10.5c.62,2.77,1.46,4.98,2.52,6.62,1.06,1.64,2.28,2.79,3.66,3.45,1.38.66,2.84.98,4.38.98,1.9,0,3.68-.49,5.36-1.48,1.68-.98,3.13-2.24,4.38-3.77,1.24-1.53,2.22-3.24,2.95-5.14.73-1.9,1.09-3.79,1.09-5.69v-26.69Z"/>
      </g>
      <g>
        <path class="cls-1" d="M351.78,746.36c-8.83-.7-20.98-1.03-28.28-5.54-9.05-5.6-14.78-16.12-15.06-26.74-.28-10.66,3.46-7.26,6.89-14.1,3.66-7.29,4.56-27.52,1.22-34.78-1.7-3.69-3.24-2.63-6.41-1.23-10.96,4.82-16.08,26.27-11.84,36.39,1.25,2.97,5.7,4.45,6.11,5.88.24.84-1.15,8.74-.88,11.78.52,5.89,3.88,13.71,7.54,18.32l6.37,6.05-28.65-5.15c-5.96-17.89-18.04-34.6-31.52-47.62-4.43-4.28-17.43-16.63-21.89-5.9-1.77,4.26-.18,8.11,1.46,11.92-9.54-6.64-22.15-3.84-17.12,9.67l7.18,7.24c-2.83-.41-5.97-.77-8.66-1.78-7.49-2.78-22.14-11.81-29.44-16.32-5.5-3.39-10.65-7.35-16.17-10.71,9.67-28,.05-57.62-21.84-76.65-7.91,21.16-5.26,45.96,7.47,64.67l-15.93-12.42-24.4-23.43c-.95-2.13,3.18-10.64,4.01-13.9,7.15-28.05,1.65-53.63-16.41-76.12l-3.47,5.5c-8.91,21.38-8.64,44.08-.52,65.65-7.34-9.54-17.52-20.54-23.08-31.13-5.45-10.38-3.77-24.59-.77-35.53,1-.73,7.2,6.56,13.86.44,12.44-11.45-9.91-28.47-15.39-11.4-1.25,3.91-5.02,16.02-5.45,19.41-.56,4.47.41,9.84,0,14.43l-10.93-19.42c13.89-15.55,11.82-38.93,8.93-58.17-1.05-1.1-8.51,6.79-9.46,7.94-6.59,7.92-10.36,17.44-9.45,27.87-.25.33-1.22-.58-1.5-.99-4.79-7.23-13.24-37.25-15.74-46.95C-19.88,279.75,118.23,76.8,324.45,47.46l12.88-5.51C220.42,53.32,114.72,125.12,59.23,227.98,14.12,311.56,4.71,410.38,32.62,501.38c4.94,16.11,11.73,31.48,18.17,46.99l-14.6-11.75c-8.31-5.65-17.5-10.11-27.35-12.45-1.46-.34-9.65-3.03-8.76-.19,1.31,4.2,4.15,10.63,6.54,14.37,10.74,16.9,34.69,22.6,53.11,26.49,3.7,8.73,13.52,18.77,16.93,26.85.25.58.18,1.68-.47,1.47-2.44-1.57-5.18-3.1-7.93-4.02-4.19-1.41-10.52-1.92-13.79-3.12-2.16-.79-2.91-6.41-6.91-8.02-19.92-8.01-22.95,22.3-3.46,18.92,5.74-1,7.14-6.65,9.18-6.84,4.03-.39,14.79,3.4,18.76,5.23,15.61,7.13,21.47,21.92,33.31,33.37l-.82,2.3c-1.01-3.59-7.57-6.04-10.98-7.44-17.53-7.2-36.56-7.1-54.71-2.5,1,10.78,11.74,17.55,20.92,21.37,18.54,7.73,39.92,6.96,59.03,1.8l34.47,30.06c-5.52.61-10.75-.81-16.4-.48-12.65.72-25.45,5.83-35.64,13.1-1.78,1.26-12.02,8.85-10.64,10.75,14.66,7.94,28.99,7.57,45,4.72,12.56-2.23,24.46-6.98,35.51-13.2l37.88,21.93c-19.62,6.97-3.74,24.76,10.94,23.38l-9.4,5.02c-7.25,10.71,2.93,16.75,13.38,14.88-4.52,3.88-8.18,6.82-4.84,13.3,3.48,6.76,12.3,2.81,17.73,1.07,17.21-5.48,35.55-16.53,48.43-29.08,5.14,2.06,13.66,2.07,18.28,4.26.77.37,1.36.8.47,1.48-1.82,1.37-4.04,2.01-5.98,3.95-4.05,4.03-11.51,18.9-11.49,24.42.04,9.32,16.34,26.24,21.28,18.16,4.62-7.54-2.49-27.63-12.23-30.09,3.22-6.86,8.63-13.84,16.63-15.19,8.37-1.43,26.8,3.02,36.6,3.73,8.82.64,17.92.17,26.77,1.02l.63-3.43c-.51-1.75-21.39-1.33-24.42-1.57ZM303.51,700.11c-4.47-6.37-1.21-21.4,3.02-27.61.67-.99,4.72-5,5.94-3.74.75,7.29,1.73,14.77.74,22.13-.62,4.62-4.68,16.36-9.69,9.22ZM83.34,537.57c8.46.1,8.46,11.28.76,12.77-6.33-2.59-6.84-9.42-.76-12.77ZM6.01,528.49c13.19,2.53,26.16,9.74,36.4,18.33,4.2,3.54,7.65,8.39,11.36,12.49-19.27-4.01-39.5-11.38-47.76-30.82ZM58.73,549.36c-2.02,1.7-4.22-5.96-4.49-6.94-3.26-12.28-.73-23.27,6.06-33.78l4.4-5.03c1.83,15.32,2.27,32.17-5.97,45.75ZM47.54,590.9c-4.42,4.94-16.41-.25-10.45-8.46,5.98-4.58,15.61,2.67,10.45,8.46ZM53.85,635.35c-1.72-1.02-11.89-8.28-10.02-10.35,23.8-5.56,50.75-.21,68.64,16.89-18.65,4.44-41.82,3.45-58.62-6.54ZM112.49,630.95c-14.72-22.79-17.74-50.15-7.96-75.61,11.66,13.9,16.22,34.33,14.95,52.27-.12,1.82-3.99,25.4-6.98,23.34ZM167.2,686.66c-21.24,8.94-48.47,19.51-70.64,8.46,17.15-13.36,35.77-19.45,57.55-14.76,1.56.33,15.11,3.63,13.09,6.3ZM169.18,681.7c-16.52-17.17-22.72-42.48-16.89-65.66l10.11,13.25c9.63,16.73,10.52,33.72,6.78,52.41ZM223.06,697.75c4.46-2.78,21.54,7.29,26.03,10.01,9.27,5.63,19.03,12.92,26.56,20.69-3.96-1.33-7.48-3.48-11.43-4.98-12.2-4.62-25.77-6.25-36.26-14.48-3.51-2.75-7.31-6.61-4.9-11.24ZM242.78,761.76c-3.46,1.44-19.23,8.52-20.75,3.87-3.6-10.99,21.68-12.37,27.79-13.76,6.71-1.52,13.19-3.88,19.86-5.49-7.92,5.97-17.73,11.56-26.9,15.38ZM261.14,744.3c-8.71,2.34-40.79,8.96-47.5,4.88-4.5-2.72.26-6.82,3.25-8.34,11.33-5.8,21.85-1.25,33.39-.45,7.02.48,14.34-.34,21.38.02l-10.52,3.89ZM272.22,735.48c-15.22,1.8-45.58-1.25-60.04-6.72-5.19-1.95-9.93-4.24-8.02-10.61,1.86-5.43,24.15-.34,28.92.66,14.72,3.08,28.52,8.6,42.58,13.64.27,2.59-1.43,2.79-3.43,3.03ZM269.15,716.56c-2.91-2.35-6.08-4.62-9.11-6.81-6.79-4.93-19.36-10.24-21.8-19.08-1.79-6.49,3.88-6.92,8.59-3.54,7.44,5.35,16.77,17.54,22.23,25.05,2.38,3.28,5.11,6.54,7.57,9.82-2.44,1.12-5.23-3.63-7.49-5.45ZM301.7,774.54c.87,1.96,4.94,15.46,1.31,15.58-7.07-4.29-14.41-9.89-12.21-19.16.3-1.28,1.09-3.17,2.42-3.6,3.79-1.21,7.2,4.27,8.48,7.18Z"/>
        <path class="cls-1" d="M696.53,245.91c14.09,13.02,31.26,23.51,50.72,25.86-5.67-28.95-33.84-37.38-59.1-42.87l-17.5-27.29.48-1.47c4.84,3.97,12.09,6.18,18.16,7.72,1.57.4,4.19-.16,5.08.39.41.26,2.16,5.84,5.75,7.67,18.75,9.58,24.79-22.47,3.09-18.54-5.63,1.02-7.34,6.76-9.14,6.8-6.67-1.23-13.73-3.16-19.83-6.17-14.78-7.28-20.34-22.66-32.45-33.21l21.05,8.8c15.43,3.75,31.55,4.12,46.61-1.35-12.17-29.4-55.11-29.64-81.34-22.55-11.23-10.69-22.28-21.77-35.07-30.67,13.24,2.12,26.44,1.21,39.06-3.72,6.41-2.5,19.79-10.61,23.65-16.14.71-1.03,1.48-1.06.5-2.55-1.07-1.64-10.83-5.12-13.25-5.67-20.61-4.64-48.81,3.58-66.57,14.49l-1.26-.29c-11.65-8.06-24.46-16.95-37.85-21.45.73-1.79,3.91-1.44,5.88-2.56,4.37-2.47,4.92-6.99,3.84-11.65-1.34-5.83-13.07-10.18-18.68-9.67-.4-2.74.3-1.52,1.48-1.99,4.41-1.72,8.1-1.7,9.25-7.71,1.9-9.89-7.05-10.85-14.71-10.21,8.64-8.62,6.86-18.86-7.23-16.66-9.49,1.49-34.28,14.33-42.46,20.22-2.41,1.74-10.15,9.73-11.72,10.2-4.62,1.37-14.97-3.49-20.17-3.81.41-1.63,2.9-1.68,4.48-2.96,5.19-4.23,15.11-21.75,14.22-28.1-.7-5.01-5.44-11.08-9.18-14.27-18.85-16.04-15.79,14.71-5.59,24,1.73,1.58,3.42,1.78,5.1,3.03-1.97,8.93-10.69,15.15-19.47,16.12-20.03-3.5-40.33-5.37-60.7-4.79-.86,0-.67,2.1-.5,2.49,1.15,2.69,16.57,1.25,20.38,1.5,22.26,1.52,47.12,3.86,47.88,32.5.28,10.36-4.81,8.73-7.76,16.56-4.43,11.78-2.77,23.67.19,35.5,15.39-.59,23.04-27.36,17.1-38.5-1.39-2.6-5.71-4.99-5.83-5.7-.26-1.56,1.44-5.81,1.44-8.03,0-10.66-5.66-21.21-13.71-27.86l28.63,5.69c5.76,17.43,18.92,36.22,32.54,48.56,4.76,4.32,15.42,13.77,20.29,4.33,2.47-4.81.48-6.84-.85-11.31,9.48,4.94,19.59,4.19,17.24-8.8l-7.29-9.11c19.08,5.75,35.9,17.96,52.75,28.39l.8,1.73c-9.58,27.31.27,56.73,21.57,75.33,6.53-14.61,6-35.19.54-50.27-1.85-5.1-5.3-9.27-7-14.38,14.17,11.64,28.31,23.59,40.45,37.29-13.48,29.64-9.2,64.17,11.78,89.05,9.18-15.2,12.17-34.54,9.33-52.1-1.03-6.42-3.62-11.62-5.37-17.51-.3-.99-1.38-3.19.51-2.99,7.85,15.03,24.47,27.53,25.86,45.28.15,1.86-.35,25.57-3.95,23.36-1.84-5.58-9.33-4.39-12.97-.51-8.8,9.39,3.62,23.09,12.31,16.3,4.88-3.82,4.11-13.85,7.5-19.37l2.6-20.29,10.3,19.56c-14.54,15.56-12.44,39.6-8.81,59.03,7.91-6.22,14.66-14.1,17.18-24.09l2.7-12.71c8.57,24.77,17.09,49.46,21.59,75.43,32.2,186.34-87.12,361.08-269.32,403.65-12.97,3.03-26.4,3.93-38.78,8.98-1.19.48-3.99,1.02-4.01,2.44,103.38-10.49,198.17-66.13,257.51-150.91,62.61-89.46,80.62-203.71,48.21-308.52-4.99-16.11-11.66-31.48-18.17-46.99ZM698.66,204.82c.8-1.94,2.4-2.67,4.27-3.21,4.94-1.43,11.04,2.57,8.32,7.72-3.68,6.97-14.45,3.71-12.59-4.51ZM449.8,25.48c-5.19-3.75-7.03-15.27-6.98-21.35,1.59-1.79,12.22,7.86,13.17,10.2,2.08,5.14,1.06,16.39-6.18,11.15ZM443.54,92.95c5.52,5.07,1.44,31.16-8.69,32.56-.96-8.88-2.22-18.17.49-26.86,1.13-3.62,3.61-9.91,8.2-5.7ZM485.92,41.76c6.56-3.16,33.5-18.27,39.32-14.61,1.46,2.64.97,4.1-.84,6.34-5.73,7.11-19.6,7.01-27.89,8.93-6.74,1.56-13.13,4.04-19.88,5.47l9.28-6.13ZM511.97,44.93c7.55-.87,16.26-2.06,23.23,1.11,1.33,5.3-2.27,7.06-6.61,8.56-11.02,3.8-20.41.59-31.57-.71l-21.38-.51c11.64-3.81,24.08-7.03,36.32-8.44ZM507.49,109.14c-1.05.7-2.12.54-3.26.3-6.98-1.42-28.99-30.38-33.56-37.64l19.99,15.32c7.36,4.13,22.25,12.22,16.84,22.02ZM524.28,96.54c-3.13,2.77-18.92-5.68-22.45-7.67-10.5-5.91-21.87-14.33-30.17-23.05,5.08,1.92,9.85,4.57,14.97,6.41,7.6,2.73,17.18,4.22,24.16,7.68,5.24,2.6,17.15,9.86,13.49,16.63ZM479.35,64.59l-7.68-4.23c.8-1,1.95-1.49,3.14-1.85,6.17-1.88,22.95-.33,30.06.47,6.78.77,35.15,5.75,38.2,11.02,2.22,3.83-1.03,7.46-4.68,8.31-10.39,2.43-47.89-9.1-59.04-13.72ZM597.01,152.9c.23,2.6.32,24.38-2.47,24.34-16.9-16.63-21.7-40.96-16.41-63.65,1.71-1.79,9.32,10.8,10.12,12.26,4.24,7.73,8.01,18.22,8.76,27.05ZM580.13,109.1c19.97-12.42,46.72-18.15,69.62-11.44,1.79,1.92-8.91,8.34-10.27,9.12-17.95,10.33-40.81,12.21-59.34,2.31ZM704.48,169.28c-24.16,5.39-51.66,1.09-69.64-16.9,23.48-4.18,53.93-3.78,69.64,16.9ZM642.78,238.94c-1.09.84-6.79-9.58-7.44-10.95-9.18-19.64-10.97-45-1-64.64,15.8,22.12,18,50.4,8.45,75.59ZM663.21,256.85c-11.92-3.05-2.15-19.21,4.13-10.64,2.82,3.84.05,9.4-4.13,10.64ZM741.28,266.8c-18.83-5.59-35.79-16.17-47.75-31.83,19.04,4.55,41.05,11.1,47.75,31.83ZM683.58,290.67l-2.02-8.41c.41-11.97-.95-28.92,8.99-37.35,7.86,16.63,3.55,31.8-6.97,45.76Z"/>
      </g>
    </g>
  </g>
</svg>