<?xml version="1.0" encoding="UTF-8"?>
<svg id="Capa_2" data-name="Capa 2" xmlns="http://www.w3.org/2000/svg" viewBox="0 0 161.71 189.94">
  <defs>
    <style>
      .cls-1 {
        fill: #fff;
      }

      .cls-2 {
        fill: #d3d3d3;
      }
    </style>
  </defs>
  <g id="OBJECTS">
    <g>
      <g>
        <path class="cls-1" d="M53.4,174.75c-.17.03-.32.06-.51.09.31-.05.46-.07.51-.09Z"/>
        <path class="cls-1" d="M145.95,36.21c-.02.12-.04.25-.06.37-.01.13,0,.06.06-.37Z"/>
        <path class="cls-2" d="M159.67,5.4c-.62-3.15-2.64-4.8-4.99-5.26-.09,25.43,7.06,54.25-15.74,69.76-18,12-42,2-60,9-18,6-16,39-10,58,5,12,5,27-2,39-3,5-10,8-16,9-6.79.87-13.61,1.55-20.43,2.02,8.21,2.48,16.64,3.72,24.65,2.64,30.51-4.13,21.08-43.09,18.31-63.92-.82-6.18-1.59-12.39-1.84-18.62-.22-5.52-.14-10.3,1.06-14.86,1.04-3.95,2.97-7.13,5.32-8.75,4.15-2.85,9.45-3.58,15.14-3.53,7.87.06,15.56,2.03,23.44,1.84,6.78-.17,13.38-1.49,19.55-4.32,10.08-4.62,16.93-13.55,20.86-23.7,5.76-14.87,5.74-32.76,2.68-48.29Z"/>
        <path class="cls-1" d="M66.94,175.89c7-12,7-27,2-39-6-19-8-52,10-58,18-7,42,3,60-9,22.8-15.51,15.66-44.32,15.74-69.76-4.7-.92-10.72,2.95-9.48,9.25.22,1.12.37,2.26.55,3.39-.42-2.75.1.93.19,1.87.17,1.65.3,3.3.39,4.96.22,3.95.25,7.92.01,11.87-.06,1.05-.14,2.11-.24,3.16-.02.21-.19,1.64-.22,1.95.02-.12.04-.25.06-.37-.06.43-.07.49-.06.37-.33,2.29-.77,4.57-1.34,6.81-1.24,4.84-2.12,7.2-4.51,11.09-1.99,3.25-4.88,6.28-8.28,8.3-10.45,6.2-23.27,2.84-35.59,2.19-12.34-.65-25.47,2.04-33.09,12.57-6.23,8.62-6.92,20.13-6.41,30.4.62,12.47,2.98,24.78,4.32,37.18.66,6.06,1.21,12.22.93,18.31-.1,2.2-.6,4.98-1.32,6.55-.59,1.28-1.62,2.47-2.33,2.95-1.57,1.05-2.33,1.4-4.86,1.82-.05.01-.19.04-.51.09.18-.03.34-.06.51-.09.15-.04-.85.1-1.11.11-.77.04-1.54.07-2.32.07-1.34,0-2.68-.08-4.01-.22-1.3-.13-5.21-.92-7.58-1.54-2.78-.73-5.51-1.6-8.21-2.57-6.46-2.32-12.4-4.94-18.94-8.69-8.39-4.8-15.96,8.16-7.57,12.95,7.97,4.56,17.26,9.15,26.85,12.04,6.82-.46,13.64-1.15,20.43-2.02,6-1,13-4,16-9Z"/>
      </g>
      <path class="cls-2" d="M59.94,170.89s7.62-5.38,10.37,4.62c0,0-2.25-11.88-10.37-4.62Z"/>
      <path class="cls-2" d="M61.92,163.43s2.52-6.79,11.02-1.04c0,0-6.92-9.16-11.02,1.04Z"/>
      <path class="cls-2" d="M61.56,151.52s2.5-8.25,14.62-1.12c0,0-13.12-9.12-14.62,1.12Z"/>
      <path class="cls-2" d="M59.6,136.06s.67-9,13.83-3.67c0,0-9-3.67-13.83,3.67Z"/>
      <path class="cls-2" d="M58.1,124.56s3-9.5,13.33-5c0,0-9.5-7.83-13.33,5Z"/>
      <path class="cls-2" d="M56.66,107.94s3.94-6.88,14.44-1.05c0,0-9.71-8.41-14.44,1.05Z"/>
      <path class="cls-2" d="M56.94,94.22s4.33-6.33,14.83-1c0,0-9.67-9-14.83,1Z"/>
      <path class="cls-2" d="M61.27,80.39s7-8.33,16.67,2.17c0,0-5.5-13.67-16.67-2.17Z"/>
      <path class="cls-2" d="M83.94,65.39s12.5-.5,11.67,13.33c0,0,3.67-15.83-11.67-13.33Z"/>
      <path class="cls-2" d="M109.27,66.06s11.83.83,12.17,12.67c0,0,4.67-12.67-12.17-12.67Z"/>
      <path class="cls-2" d="M128.77,64.22s12.33.17,12.5,8.83c0,0,1-12.17-12.5-8.83Z"/>
    </g>
  </g>
</svg>