<?xml version="1.0" encoding="UTF-8"?>
<svg xmlns="http://www.w3.org/2000/svg" viewBox="0 0 205.93 320.75">
  <defs>
    <style>
      .cls-1 {
        mix-blend-mode: color-dodge;
      }

      .cls-2 {
        fill: #ed2b35;
      }

      .cls-3 {
        fill: #fff;
      }

      .cls-4 {
        fill: #5ac0ff;
      }

      .cls-5 {
        opacity: .31;
      }

      .cls-5, .cls-6 {
        fill: #a8a8a8;
      }

      .cls-7 {
        fill: #09637f;
      }

      .cls-8 {
        isolation: isolate;
      }

      .cls-9 {
        fill: #2e6587;
      }

      .cls-10 {
        fill: #dbdbdb;
      }

      .cls-11 {
        fill: #bf2837;
      }

      .cls-12 {
        fill: #a5a5a5;
      }

      .cls-13 {
        fill: #1784af;
      }

      .cls-14 {
        fill: #1a3549;
      }
    </style>
  </defs>
  <g class="cls-8">
    <g id="Capa_2" data-name="Capa 2">
      <g id="OBJECTS">
        <g>
          <g>
            <path class="cls-3" d="M86.78,244.08s14.98,53.55,71.32,57.36c0,0-11.94,3.83-9.13,13.88,0,0,1.36,5.12,4.43,5.44,3.07.32,17.7-15.03,18.05-18.43.34-3.4-5.9-11.17-12.01-12.15-6.12-.98-17.6-34.85-17.6-34.85l-55.06-11.25Z"/>
            <path class="cls-3" d="M195.48,197.79s28.22,47.92-8.09,91.17c0,0,11.04-5.95,16.33,3.04,0,0,2.74,4.53.85,6.97-1.89,2.44-23.1,2.35-25.79.23s-3.97-11.99-.43-17.08c3.53-5.09-12.92-36.84-12.92-36.84l30.05-47.48Z"/>
            <path class="cls-10" d="M86.78,244.08s4.54,16.2,17.99,31.41c7.87.53,15.95-.47,23.45-2.58,6.1-1.73,12.12-3.61,18.02-5.69-2.58-6.53-4.4-11.9-4.4-11.9l-55.06-11.25Z"/>
            <path class="cls-10" d="M195.48,197.79l-30.05,47.48s2.66,5.13,5.6,11.59c12.4-6.14,24.06-13.59,34.73-22.85-1.33-21.02-10.28-36.23-10.28-36.23Z"/>
            <path class="cls-12" d="M169.81,81.93h0c-3.74,1.59-8.1-.16-9.7-3.91l-12.83-30.15c-1.59-3.74.16-8.1,3.91-9.7h0c3.74-1.59,8.1.16,9.7,3.91l12.83,30.15c1.59,3.74-.16,8.1-3.91,9.7Z"/>
            <path class="cls-12" d="M23.12,144.38h0c-3.74,1.59-8.1-.16-9.7-3.91L.59,110.33c-1.59-3.74.16-8.1,3.91-9.7h0c3.74-1.59,8.1.16,9.7,3.91l12.83,30.15c1.59,3.74-.16,8.1-3.91,9.7Z"/>
            <path class="cls-3" d="M141.97,147.63l-7.13-1.96-42.63,19.13-2.56,1.19s-25.13,50.82,2.1,87.83c.28.4.57.79.88,1.17.06.08.12.16.18.24h0c11.05,13.43,38.54,15.52,65.64,3.98,26.94-11.47,44.44-32.54,42.66-49.75h.02s-3.42-44.86-59.17-61.84Z"/>
            <path class="cls-3" d="M147.36,232.19h0c-12.89,5.49-27.93-.57-33.41-13.46l-6.81-15.99c-5.49-12.89.57-27.93,13.46-33.41h0c12.89-5.49,27.93.57,33.41,13.46l6.81,15.99c5.49,12.89-.57,27.93-13.46,33.41Z"/>
            <path class="cls-10" d="M130.66,164.93h.54c15.96,0,28.92,12.96,28.92,28.92v17.22c0,15.96-12.96,28.93-28.93,28.93h-.54c-15.96,0-28.92-12.96-28.92-28.92v-17.22c0-15.97,12.96-28.93,28.93-28.93Z" transform="translate(-68.86 67.49) rotate(-23.07)"/>
            <path class="cls-3" d="M144.24,232.82l-.46.2c-13.64,5.81-29.54-.6-35.35-14.24l-6.28-14.76c-5.81-13.64.6-29.54,14.24-35.35l.46-.2c13.64-5.81,29.54.6,35.35,14.24l6.28,14.76c5.81,13.64-.6,29.54-14.24,35.35Z"/>
            <path class="cls-7" d="M128.74,176.23c.55,1.29-.05,2.79-1.35,3.34-1.29.55-2.79-.05-3.34-1.35-.55-1.29.05-2.79,1.35-3.34s2.79.05,3.34,1.35Z"/>
            <path class="cls-11" d="M136.47,173.21c.61,1.42-.06,3.06-1.48,3.67-1.42.61-3.06-.06-3.67-1.48-.61-1.42.06-3.06,1.48-3.67,1.42-.61,3.06.06,3.67,1.48Z"/>
            <path class="cls-13" d="M128.49,175.63c.55,1.29-.05,2.79-1.35,3.34-1.29.55-2.79-.05-3.34-1.35-.55-1.29.05-2.79,1.35-3.34,1.29-.55,2.79.05,3.34,1.35Z"/>
            <path class="cls-2" d="M136.21,172.61c.61,1.42-.06,3.06-1.48,3.67-1.42.61-3.06-.06-3.67-1.48s.06-3.06,1.48-3.67,3.06.06,3.67,1.48Z"/>
            <path class="cls-3" d="M88.04,161.17l2.72,6.38c1.2,2.82,3.93,4.7,7,4.82l1.37.05c1.17.04,2.33-.17,3.4-.63l29.29-12.47c1.24-.53,2.32-1.36,3.15-2.43h0c1.77-2.27,2.16-5.32,1.04-7.97l-3.11-7.31-44.85,19.57Z"/>
            <path class="cls-10" d="M89.23,158.35l2.49,5.86c1.1,2.59,3.61,4.32,6.43,4.42l1.26.05c1.07.04,2.14-.16,3.12-.58l26.91-11.46c1.14-.48,2.13-1.25,2.89-2.23h0c1.62-2.09,1.99-4.89.95-7.32l-2.86-6.72-41.2,17.98Z"/>
            <path class="cls-3" d="M152.34,45.14C134.56,11.45,108.35,1.82,87.56.24c-13.76-1.05-27.57,1.39-40.29,6.73l-1.46.61c-3.83,1.81-60.07,32.78-38.12,99.17,21.97,66.42,50.5,66.8,91.2,53.33,2.48-.82,4.91-1.76,7.31-2.8l8.37-3.63,5.95-2.49c2.39-1,4.74-2.1,7.03-3.31,37.94-20.01,57.46-40.84,24.79-102.72Z"/>
            <path class="cls-6" d="M15.82,91.45c2.45,11.99,7.32,28.3,16.97,44.95,8.18,14.11,25.64,20.89,42.93,16.67,17.45-4.25,40.75-12.03,62.47-26.02,14.14-9.11,21.31-25.24,17.91-40.31-2.97-13.17-8.6-30.01-19.26-45.73-7.84-11.56-22.39-17.47-37.38-15.28-19.44,2.83-47.6,10.22-70.11,29.37-11.01,9.37-16.2,23.26-13.52,36.35Z"/>
            <path class="cls-14" d="M17.89,90.95c2.38,11.62,7.09,27.41,16.44,43.53,7.92,13.66,24.83,20.23,41.58,16.15,16.9-4.12,39.47-11.65,60.5-25.2,13.7-8.83,20.63-24.45,17.34-39.04-2.88-12.76-8.33-29.06-18.66-44.29-7.59-11.2-21.68-16.92-36.21-14.8-18.83,2.74-46.1,9.9-67.9,28.44-10.66,9.07-15.69,22.53-13.1,35.2Z"/>
            <g>
              <path class="cls-3" d="M88.06,169.83s-34.72,26.07-24.18,51.33c10.54,25.26,37.45,17.06,56.6-4.77s26.96-20.82,26.96-20.82c0,0,5.37-5.76,4.64-8.49-.73-2.73-23.27-8.76-65.47,18.1,0,0,6.16-4.14,9.35-5.83,0,0-3.23-2.75-10.68,1.94l11.56-6.01s3.85-24.11-8.78-25.47Z"/>
              <path class="cls-5" d="M94.14,198.66c-2.07,1.59-3.95,3.38-5.7,5.31,2.07-1.36,5.43-3.51,7.52-4.61,0,0-.59-.49-1.82-.7Z"/>
              <path class="cls-5" d="M89.49,199.23c.41-.12.82-.24,1.22-.36-.39.09-.79.21-1.22.36Z"/>
              <path class="cls-5" d="M85.28,201.31l3.51-1.82c-1.05.42-2.21,1.01-3.51,1.82Z"/>
              <path class="cls-10" d="M131.86,195.8c-15.85,13.26-31.95,30.54-54.84,27.26-7.22-1.23-11.97-7.38-15.03-14.24-.35,4.06.16,8.21,1.88,12.35,10.54,25.26,37.45,17.06,56.6-4.77,19.15-21.83,26.96-20.82,26.96-20.82,0,0,5.37-5.76,4.64-8.49-.14-.54-1.15-1.21-3-1.73-6.46,2.57-12.4,6.28-17.21,10.44Z"/>
              <path class="cls-3" d="M118.55,218.52s38.82,3.45,62.28-14.36c23.47-17.81,9.33-39.8-7.26-48.15-16.59-8.36-28.92-7.23-28.92-7.23,0,0-3.66,7.21,12.41,31.19,0,0-6.64,6.08-9.64,15.61,0,0-7.84-1.33-28.88,22.94Z"/>
              <path class="cls-10" d="M88.24,204.27s-2.72-7.42,8.25-9.7,13.19-1.92,13.19-1.92l-21.43,11.62Z"/>
              <path class="cls-10" d="M81.72,225.4s-8.26-14.29,8.89-22.46c0,0-12.08,4.27-8.89,22.46Z"/>
              <path class="cls-10" d="M95.83,198.76s-6.68,13.76,1.63,26.01c0,0-12.78-13.94-1.63-26.01Z"/>
              <path class="cls-10" d="M104.72,194s2.51,5.12,7.5,23.35c0,0-.96-19.46-7.5-23.35Z"/>
              <path class="cls-10" d="M114.29,190.09s8.6-1.22,12.51,10.63c0,0-2.3-16.12-12.51-10.63Z"/>
              <path class="cls-10" d="M89.78,200.47s-10.83-13.25-25.93-.14c0,0,15.35-7.62,25.93.14Z"/>
              <path class="cls-10" d="M89.14,201.77s-25.16.37-23.65,17.32c0,0,1.11-13.26,23.65-17.32Z"/>
              <path class="cls-10" d="M80.83,176.18s6.25.09,12.14,22.34c0,0-1.99-20.73-10.52-23.94l-1.62,1.6Z"/>
              <path class="cls-10" d="M155.24,149.65c4.58,12.39,13.07,23.31,13.24,35.77.68,17.07-22.42,26.1-38.49,21.06-3.28,3.07-7.07,7-11.44,12.04,0,0,38.82,3.45,62.28-14.36,23.47-17.81,9.33-39.8-7.26-48.15-7.11-3.58-13.43-5.42-18.34-6.35Z"/>
              <path class="cls-10" d="M145.49,148.74s-3.6,8.37,9.75,24.94c0,0-9.97-15.51-7.69-24.95h-2.06Z"/>
              <path class="cls-10" d="M156.17,177.14s-3.21-15.57,8.94-18.79c0,0-7.42,1.69-8.94,18.79Z"/>
              <path class="cls-10" d="M156.12,180.09s6.91-8.64,13.58-1.38c0,0-5.11-4.34-13.58,1.38Z"/>
              <path class="cls-10" d="M153.36,184.69s10.01-5.56,16.52,9.74c0,0-4.64-18.54-16.52-9.74Z"/>
              <path class="cls-10" d="M148.52,191.31s6.38-3.37,15.69,11.23c0,0-7.63-20.2-15.69-11.23Z"/>
              <path class="cls-10" d="M143.57,195.37s6.22-1.83,8.52,15.43c0,0,1.17-19.06-8.52-15.43Z"/>
            </g>
            <path class="cls-10" d="M150.23,51.51s23.12,41.29,5.31,66.79c-17.81,25.5-73.41,43.31-73.41,43.31,0,0,59.42-11.13,76.68-37.53,17.26-26.4-.83-66.58-8.58-72.56Z"/>
          </g>
          <path class="cls-9" d="M29.96,104.69c-1.85,2.88-6.2,2.32-7.26-.93-4.06-12.42-6.8-36.91,23.39-56.89,42.35-28.02,82.69-11.32,85.49,1.38,0,0,4.94,18.74-44,24.16-34.66,3.84-51.03,22-57.62,32.27Z"/>
          <path class="cls-9" d="M140.52,73.07c1.72,4.04-.16,8.7-4.2,10.42-4.04,1.72-8.7-.16-10.42-4.2-1.72-4.04.16-8.7,4.2-10.42,4.04-1.72,8.7.16,10.42,4.2Z"/>
          <g class="cls-1">
            <path class="cls-4" d="M50.77,143.03L106.72,29.64s-38.24,90.22-55.95,113.39Z"/>
            <path class="cls-4" d="M52.18,146.34s11.66,6.98,22.92,2.84,50.24-113.02,50.24-113.02c0,0-6.3-8.17-16.04-7.07,0,0-44.45,104.69-57.13,117.26Z"/>
          </g>
        </g>
      </g>
    </g>
  </g>
</svg>