<?xml version="1.0" encoding="UTF-8"?>
<svg xmlns="http://www.w3.org/2000/svg" viewBox="0 0 173.61 173.61">
  <defs>
    <style>
      .cls-1 {
        fill: #fffef2;
        stroke: #cbccce;
        stroke-miterlimit: 10;
      }

      .cls-2, .cls-3 {
        fill: #c6cac9;
        mix-blend-mode: multiply;
      }

      .cls-4 {
        fill: #dedfe0;
      }

      .cls-5 {
        isolation: isolate;
      }

      .cls-3 {
        opacity: .6;
      }

      .cls-6 {
        fill: #babcbd;
      }

      .cls-7 {
        fill: #ccccc5;
      }
    </style>
  </defs>
  <g class="cls-5">
    <g id="Capa_2" data-name="Capa 2">
      <g id="Layer_1" data-name="Layer 1">
        <g>
          <g>
            <circle class="cls-1" cx="86.8" cy="86.8" r="86.3"/>
            <path class="cls-4" d="M26.99,39.98c-1.29-.44-2.69-.37-4.03.01-1.96,2.03-3.8,4.18-5.45,6.46-2.93,4.04-6.4,9.22-6.35,14.42.01,1.25.47,4.07,2.1,4.21,1.82.16,3.77-2.74,4.69-3.95,1.73-2.3,3.22-4.77,4.78-7.19,1.43-2.22,3-4.09,4.84-5.98,1.07-1.1,2.59-2.52,2.62-4.18.03-1.67-1.7-3.3-3.18-3.81Z"/>
            <path class="cls-4" d="M100.14,15.54c-.01-.07-.04-.14-.06-.21-.03-.02-.05-.03-.09-.05-.73-.4-1.5-.73-2.29-1-1.81-.64-3.71-1.08-5.62-1.2-1.38-.09-2.99-.04-4.14.48-1.1.51-1.56,1.2-1.53,2.38.04,1.46.75,3.05,1.85,4.02.95.84,2.21,1.13,3.49,1.1,2.66-.06,5.56-1.43,7.35-3.39.35-.38.61-.72.86-1.26.01-.04.08-.21.09-.25.03-.11.06-.22.08-.33-.04.23-.05-.56,0-.29Z"/>
            <path class="cls-4" d="M120.5,29.44c0-.07,0-.13-.01-.2-.03-.14-.06-.28-.1-.42-.02-.06-.04-.12-.06-.18,0-.01-.01-.03-.02-.04-.07-.14-.14-.27-.23-.4,0,0,0,0,0-.01-.23.03-.48,0-.7-.09,0,0,0,0,0,0,0,0-.02,0-.02,0-.01,0,0,0-.01,0-.01,0-.01,0-.04-.02-.07-.03-.14-.05-.21-.08-.15-.05-.3-.1-.45-.14-.15-.04-.31-.08-.46-.11-.07-.01-.14-.03-.21-.04-.04,0-.25-.03-.12-.02-.05,0-.12-.01-.14-.01-.07,0-.14-.01-.21-.02-.15-.01-.3-.02-.46-.02-.28,0-.56.02-.84.04-.02,0-.03,0-.05,0,0,0-.01,0-.02,0-.06.01-.13.02-.19.03-.12.02-.25.05-.37.08-.13.03-.26.07-.38.11-.06.02-.11.04-.17.06,0,0-.02,0-.02,0-.18.11-.38.18-.56.3-.01,0-.02.01-.03.02-.03.02-.05.04-.07.06-.06.05-.11.11-.16.17-.02.03-.04.06-.05.09,0,0,0,.02-.01.03,0,.02-.01.05-.02.08,0,.02,0,.04,0,.05.02.06.04.13.05.19.02.04.05.09.07.13.03.05.07.11.1.16.09.09.17.19.27.29.12.12.26.23.39.34.02.02.04.03.07.05.07.05.15.1.22.15.29.2.6.38.92.53.11.06.26.1.37.17.01,0,.03.01.04.02.06.02.12.05.18.07.44.16.89.26,1.35.35.05,0,.09,0,.14.01.09,0,.18,0,.28.01.1,0,.19,0,.29,0,.03,0,.08,0,.13-.01.05,0,.13-.02.16-.03.08-.02.15-.04.22-.06.06-.02.13-.04.19-.07.01,0,.03-.01.04-.02.12-.06.23-.13.34-.21,0,0,.02-.02.03-.02.05-.04.1-.09.14-.14.03-.04.07-.07.1-.11,0-.01.02-.02.02-.03.07-.1.13-.21.18-.33,0,0,0-.01,0-.02.02-.06.04-.12.06-.19.02-.07.03-.14.05-.21,0-.13.02-.26.02-.38Z"/>
            <path class="cls-4" d="M64.29,39.57c-.16-.03-.4-.11-.58-.11,0,0-.02,0-.02,0-.06,0-.12-.01-.18-.02-.13-.01-.25-.03-.38-.04-.26-.02-.52-.04-.78-.05-.56-.02-1.13-.02-1.69,0-.29.01-.58.03-.87.06-.14.01-.29.03-.43.05-.03,0-.08.01-.12.02-.03,0-.06,0-.09.01-.45.07-.9.16-1.34.29-.1.03-.21.06-.31.1-.02,0-.08.03-.14.05-.05.02-.14.06-.17.07-.08.04-.16.08-.24.13-.03.02-.06.04-.1.06.05-.02.04-.05-.02.01-.02.02-.05.05-.07.07-.02.02,0,0-.02.02,0,0,0,.01-.01.02,0,.02.01.04.02.06.04.07.08.14.12.2,0,0,.02.03.06.09.17.19.34.36.52.53.06.06.13.11.19.16,0,0,.06.05.1.08.04.03.11.09.11.09.06.04.12.08.18.12.24.16.49.29.75.42.02.01.01,0,.02.01,0,0,0,0,.02,0,.06.02.12.05.18.07.12.04.24.08.36.11.13.04.26.06.4.09.05.01.1.02.14.02-.05,0-.08-.01-.1-.02-.04,0-.05,0,0,0,.04,0,.08.01.11.02.25.02.49.03.74.01.06,0,.31-.03.3-.03.07-.01.15-.02.22-.04.23-.05.47-.11.69-.19.07-.03.45-.19.16-.05.1-.05.2-.09.3-.14.21-.1.41-.22.6-.35.09-.06.18-.12.27-.19.08-.07.09-.07.05-.04.02-.02.04-.03.06-.05.17-.14.32-.29.47-.45.07-.07.13-.15.19-.22.06-.08.07-.1.06-.09,0,0,0,0,.01-.01.11-.16.22-.33.3-.51.01-.03.03-.06.04-.09.02-.08.06-.15.08-.23,0-.03.01-.06.02-.09-.07-.02-.14-.04-.21-.06Z"/>
            <path class="cls-4" d="M31.11,72.2c-.85.18-1.61.46-2.33.81-3.28,1.6-6.34,4.26-8.25,7.38-.81,1.32-1.41,2.73-1.31,4.18.04.56.31,1.19.74,1.87.21.33.47.64.77.9.08.07.15.13.33.23.06.04.43.22.32.17.65.26,1.09.24,1.69.09.78-.19,1.43-.55,2.13-1.04,1.6-1.11,2.9-2.7,3.95-4.32,1.15-1.77,2.07-3.7,2.56-5.76.36-1.52.46-3.21-.12-4.55-.16.01-.33.01-.48.05Z"/>
            <path class="cls-4" d="M70.01,97.23c-1.79.02-3.58.31-5.21.77-1.3.37-2.66.92-3.51,1.77-.38.38-.51.62-.63,1.11,0,.02,0,.01,0,.02,0,.01,0,0,0,.03,0,.06,0,.11,0,.17,0,.07,0,.14,0,.21,0,.01,0,0,0,.01,0,0,0,0,0,.02.02.12.05.24.09.36.07.22.08.23.12.31.79,1.61,2.52,2.84,4.06,3.74.7.41,1.42.75,2.21.93.51.12.95.11,1.45-.03.04-.01.05-.01.06-.02.06-.03.12-.05.18-.09.1-.06.21-.12.3-.19-.07.05.02,0,.13-.12.08-.08.16-.17.23-.26.01-.03.14-.21.17-.26.08-.13.15-.26.21-.39.02-.05.05-.1.07-.15,0-.01,0-.02.01-.03.06-.15.11-.3.16-.46.41-1.33.46-2.56.39-4.03-.06-1.18-.24-2.3-.49-3.43Z"/>
            <path class="cls-6" d="M147.59,26.44c3.55,5.23,5.96,10.95,5.07,17.79-.09.71-.59,1.14-1.32,1-.86-.16-1.73.11-2.6.41.62.57,1.2,1.19,1.71,1.88,3.63,4.88,2.98,11.22,1.6,16.78-.78,3.17-2.07,6.26-1.86,9.58.18,2.79,1.4,5.35,2.13,8.01.79,2.88,1.32,6.41.35,9.3-.99,2.93-3.28,5.13-5.62,7.03-2.6,2.1-5.15,4.47-8.16,5.98-2.84,1.43-6.16,2.25-9.34,2.28-3.64.03-7.84-.62-11.21,1.12-2.4,1.24-5.18,2.99-6.58,5.37-.55.93-.88,2.27,0,3.12.64.62,1.72.63,2.55.66,1.88.08,4.17-.06,5.42,1.63,2,2.7.1,6.02-2.01,7.94-2.67,2.43-6.13,4.05-9.57,5.06-2.93.86-6.66,1.56-9.55.17-2.43-1.17-2.82-3.61-2.31-5.94-2.3.64-3.91,2.37-3.88,5.03.03,2.98,1.89,5.69,4.49,7.04.54.28.6.93.37,1.42-1.89,4.15-6.89,7.18-11.39,5.36-1.82-.74-2.26-2.72-3.38-4.14-1.74-2.2-5.33-2.17-7.87-2.34-3.81-.25-7.47-1.27-11.24-1.82-2.9-.42-5.45,0-7.71,1.97-1.45,1.27-2.75,2.81-3.75,4.46-.57.94-.98,2.07-1.75,2.87-1.87,1.94-5.36,1.65-7.69.96-3.2-.94-6.28-2.21-9-4.17-3.79-2.73-6.98-6.15-10.34-9.37-2.95-2.82-6.27-5.92-10.15-7.42,14.36,25.96,42.01,43.55,73.78,43.55,46.54,0,84.27-37.73,84.27-84.27,0-22.64-8.95-43.19-23.48-58.33Z"/>
            <path class="cls-3" d="M86.8.5C39.14.5.5,39.14.5,86.8s38.64,86.3,86.3,86.3,86.3-38.64,86.3-86.3S134.47.5,86.8.5ZM127.49,104.24c-5.72,12.59-14.92,23.6-26.79,30.82-12.68,7.71-28.13,10.89-42.85,9.12-13.84-1.67-26.82-8.04-36.07-18.55-9.41-10.69-14.33-24.6-15.12-38.72-.8-14.4,1.8-29.07,7.91-42.17,5.97-12.77,15.68-23.9,28.86-29.37,10.37-6.07,22.68-8.97,34.57-9.2,7.58-.15,15.21.76,22.28,3.59,6.66,2.66,12.65,6.81,17.58,12.02,10.31,10.89,15.44,25.37,16.69,40.12,1.22,14.41-1.08,29.15-7.07,42.34Z"/>
            <path class="cls-2" d="M172.01,73.12c-.09,2.44-.23,4.88-.47,7.3-1.15,11.96-3.64,24.22-9.46,34.84-4.81,8.78-11.64,16.3-19.59,22.34-8.19,6.22-17.54,10.86-27.29,14.08-9.93,3.28-20.36,5.1-30.8,5.49-10.2.38-20.51-.61-30.39-3.23-10.46-2.77-20.3-7.47-28.53-14.58-8.28-7.15-14.51-16.37-18.6-26.49-3.97-9.82-5.9-20.4-6.23-30.97-.09,1.62-.15,3.26-.15,4.9,0,47.66,38.64,86.3,86.3,86.3s86.3-38.64,86.3-86.3c0-4.66-.38-9.23-1.09-13.69Z"/>
          </g>
          <path class="cls-7" d="M116.29,88.08c-1.75-2.22-5.33-.91-6.92.85-.25.28-.47.58-.66.9-.35.4-.65.84-.88,1.34-.27.59-.41,1.26-.47,1.91-.11,1.19.09,2.46.53,3.57.42,1.03,1.03,2.16,2.05,2.71,1.61.87,3.45.24,4.65-1.04,1.34-1.43,1.96-3.45,2.32-5.34.14-.73.2-1.48.15-2.23-.06-.92-.17-1.91-.77-2.66Z"/>
          <path class="cls-7" d="M125.92,89.35c-.05-.11-.1-.23-.16-.34-.05-.08-.14-.1-.2-.16,0-.01,0-.02,0-.03-.04-.08-.08-.17-.12-.25-.08-.12-.19-.21-.33-.26-.09-.05-.18-.08-.28-.08-.16-.04-.32-.03-.48.01-.11.04-.22.07-.34.11-.23.1-.42.24-.6.42.06-.05.13-.11.19-.16-.14.12-.29.23-.44.33-.07.05-.15.11-.22.17-.14.11-.28.24-.42.35-.04.03-.08.07-.11.1-.04.05-.08.11-.13.16-.13.15-.23.32-.29.51-.01.06-.02.12-.04.17-.04.11-.05.22-.02.34,0,.08,0,.14.03.21.01.04.03.08.04.12.05.13.11.27.18.39.02.04.04.07.07.1,0,0,.02.02.02.03.04.04.08.08.12.12.07.1.17.16.28.2l.16.07c.12.02.25.04.37.05,0,0,.02,0,.03,0,.02,0,.04,0,.05,0,.07,0,.18-.02.22-.02.05,0,.15,0,.23-.02.02,0,.03,0,.05-.01.07-.02.21-.07.23-.07,0,0,.16-.05.23-.07.01,0,.03-.01.04-.02.06-.03.37-.21.43-.24,0,0,.01,0,.02-.01.01,0,.02-.02.04-.03.07-.06.31-.26.38-.32,0,0,.01-.01.02-.02,0,0,.02-.02.03-.03.11-.13.21-.26.31-.39.04-.05.07-.1.11-.15-.03.03-.05.07-.08.11.1-.11.18-.23.23-.37.05-.07.08-.14.1-.21.03-.14.06-.27.08-.41-.01-.13-.02-.26-.03-.39Z"/>
          <path class="cls-7" d="M126.5,72.71c-.01-.1-.04-.19-.08-.28-.08-.2-.17-.43-.3-.61-.02-.03-.05-.06-.07-.09-.12-.13-.26-.27-.4-.39-.17-.13-.43-.23-.6-.31-.07-.03-.13-.05-.2-.07-.23-.05-.47-.09-.7-.1-.2,0-.41.01-.62.05,0,0-.02-.02-.02-.02-.14-.1-.3-.15-.47-.16-.33-.05-.62.02-.93.14-1.12.44-2.01,1.41-2.46,2.52-.14.35-.23.75-.23,1.13,0,.35.03.73.15,1.07.23.69.63,1.29,1.24,1.69.72.48,1.59.63,2.43.46.27-.05.53-.14.78-.26.21-.1.41-.22.61-.34.05-.03.09-.06.14-.1.18-.15.37-.3.54-.47.16-.17.3-.37.44-.55.08-.11.15-.22.21-.35.14-.29.29-.57.38-.88.09-.3.15-.61.2-.91.06-.39.04-.79-.02-1.18Z"/>
          <path class="cls-7" d="M139.86,81.98c-1.6,0-3.09,2.84-.97,2.84,1.6,0,3.09-2.84.97-2.84Z"/>
          <path class="cls-7" d="M142,121.29c-.34-.61-1.32-.75-1.93-.58-.81.22-1.59.56-2.25,1.1-.67.55-1.29,1.18-1.69,1.96-.27.51-.5,1.05-.62,1.62-.09.21-.19.42-.26.63-.25.85-.3,1.71.15,2.51.44.79,1.43,1.13,2.28,1.16,1.17.04,2.35-.57,3.13-1.42.6-.65,1.04-1.45,1.3-2.29.46-1.46.66-3.3-.12-4.69Z"/>
          <path class="cls-7" d="M147.11,117.75c-1.67,0-3.24,2.98-1.02,2.98,1.67,0,3.24-2.98,1.02-2.98Z"/>
          <path class="cls-7" d="M122.47,137.59c-1.29,0-2.49,2.29-.78,2.29,1.29,0,2.49-2.29.78-2.29Z"/>
          <g>
            <path class="cls-7" d="M29.77,112.34c-.26-.75-.62-1.49-1.07-2.14-.41-.6-.94-1.18-1.55-1.58-.71-.46-1.57-.67-2.41-.56-.4-.07-.83-.02-1.2.14-.44.2-.81.52-1.11.89,0,0-.01,0-.02.01-.01.01-.02.03-.03.04-.06.08-.15.15-.2.24.07-.09.14-.18.21-.26-.58.49-1.03,1.11-1.23,1.82-.26.96-.07,1.93.59,2.69.11.12.23.25.35.38,0,.02,0,.03.01.05.21.82.51,1.61.89,2.37.3.61.71,1.21,1.28,1.61,1.08.76,2.5.47,3.52-.23.56-.38,1-.89,1.37-1.44.42-.62.73-1.31.84-2.05.1-.65-.03-1.37-.24-1.99Z"/>
            <path class="cls-7" d="M22.47,109.03s-.05.07-.08.1c0,0,.02-.01.02-.02.02-.03.03-.06.06-.09Z"/>
          </g>
          <path class="cls-7" d="M34.9,121.14c-1.75,0-3.39,3.12-1.07,3.12,1.75,0,3.39-3.12,1.07-3.12Z"/>
          <path class="cls-7" d="M28.77,126.3c-1.26,0-2.43,2.23-.76,2.23,1.26,0,2.43-2.23.76-2.23Z"/>
          <path class="cls-7" d="M18.27,94.22c-.17-.66-.45-1.3-.76-1.9-.26-.51-.62-.95-1.06-1.32-.54-.45-1.46-.29-2.04-.04-.22.1-.42.22-.62.37-.15.02-.3.06-.45.12-.48.21-.93.55-1.21,1-.17.27-.31.58-.43.88-.22.57-.32,1.19-.33,1.8,0,.63.05,1.28.22,1.88.16.55.4,1.11.8,1.53.36.38.65.58,1.14.79.33.14.71.19,1.07.2,1.08.03,2.14-.45,2.88-1.22,1.06-1.11,1.16-2.66.79-4.08Z"/>
          <path class="cls-7" d="M40.19,132.19c-.2-.51-.45-1.03-.77-1.48-.16-.22-.35-.42-.55-.61-.2-.2-.39-.38-.63-.53-.14-.07-.29-.13-.43-.2-.26-.08-.51-.09-.77-.05-.19,0-.38.04-.55.12-.3.08-.58.21-.83.4-.06.04-.11.09-.17.13-.04.02-.09.02-.13.04-.27.12-.52.29-.73.51-.19.2-.33.42-.42.68-.05.25-.09.48-.11.71,0,.04-.02.08-.02.12,0,.12.01.24.03.36,0,.03,0,.06,0,.09.03.18.07.37.14.54.1.26.22.53.38.77.16.23.37.44.59.62.44.38,1.02.53,1.59.57.85.06,1.67-.3,2.38-.74.14-.12.28-.24.42-.36.19-.18.33-.39.42-.62.14-.29.29-.74.16-1.07Z"/>
        </g>
      </g>
    </g>
  </g>
</svg>